<svg xmlns="http://www.w3.org/2000/svg" width="110" height="121" viewBox="0 0 110 121">
    <g fill="none" fill-rule="evenodd">
        <g fill-rule="nonzero">
            <path fill="#76C5EF" d="M.14639205 39.5733562h86.9409074v58.5413757H.14639205z"/>
            <path fill="#2E80AE" d="M43.6168457.12165073L.14639205 39.5733562 43.6168457 79.1001274l43.4704537-39.5267712"/>
            <path fill="#FCFCFD" d="M10.2241538 48.7064334l32.4149705 29.4953332h1.9554429l32.4147487-29.4953332V12.0995003H10.2241538"/>
            <path fill="#92E8E9" d="M20.6029065 22.1307176h45.9524644V25.27487H20.6029065z"/>
            <path fill="#F2F2F2" d="M20.60290604 30.88956936h45.9524644v3.1441524h-45.9524644zm0 9.50730222h45.9524644v3.1441524h-45.9524644zm0 9.50730222h45.9524644v3.1441524h-45.9524644zm44.74916606 9.432678H21.8816184l3.4595103 3.2189974H61.89234m-6.9942129 6.2883048H32.3355634l3.4595103 3.1441524H51.438395"/>
            <path fill="#58ABD8" d="M50.9120495 72.2128418H36.3216419L.14639205 98.1895769H87.0872994"/>
        </g>
        <path fill="#8D6FC8" d="M87.1698113 121c-12.608765 0-22.8301887-10.186479-22.8301887-22.7521368 0-12.5656581 10.2214237-22.7521367 22.8301887-22.7521367C99.7785764 75.4957265 110 85.6822051 110 98.2478632 110 110.813521 99.7785764 121 87.1698113 121zm-9.4099826-23.508356l-3.0428476 2.918911 8.5254276 8.179189 3.0428476-2.918911 14.3751207-13.7896154-3.0428472-2.9410467-14.3751211 13.7896151-5.48258-5.238142z"/>
    </g>
</svg>