<svg xmlns="http://www.w3.org/2000/svg" width="14" height="20" viewBox="0 0 14 20">
    <g fill="#FFF">
        <path d="M14 2.7220143C14 1.2186873 12.8403305 0 11.4098057 0H7.64754857C7.28991737 0 7 .30467183 7 .68050357c0 .37583175.28991737.68050358.64754857.68050358h3.76225713c.7152624 0 1.2950972.60934365 1.2950972 1.36100714v14.5559714c0 .7516635-.5798348 1.3610072-1.2950972 1.3610072H7.64754857c-.3576312 0-.64754857.3046718-.64754857.6805035C7 19.6953282 7.28991737 20 7.64754857 20h3.76225713C12.8403305 20 14 18.7813127 14 17.2779857V2.7220143z"/>
        <path d="M4.37779968 6.150193c-.1124687.10337722-.17901834.2470863-.18496215.39941238-.00594382.15232607.04920678.30074725.1532807.4125087L7.125445 9.9429834H.57602627C.25789575 9.94298337 0 10.1998805 0 10.5167792s.25789575.5737958.57602627.5737958H7.125445l-2.77932677 2.9837383c-.1825965.2342693-.15587128.5685514.06164635.7710796.21751763.2025282.55413746.2065525.77647188.0092827l3.6808079-3.9477153.0288013-.0372967.03168145-.0430347c.01048428-.0167098.02009746-.0339465.02880135-.0516416 0-.0143449.0172808-.0286898.02304105-.0459037.00793475-.0206349.01466627-.0417092.0201609-.0631175v-.0430347c.0032928-.035308.0032928-.0708441 0-.1061522.0032928-.0353081.0032928-.0708442 0-.1061522v-.0430347c-.00549464-.0214083-.01222616-.0424826-.02016092-.0631176 0-.0143449-.01440065-.0286898-.02304105-.0459036-.0087039-.0176951-.01831707-.0349318-.0288013-.0516417l-.03168146-.0430346-.0288013-.0372968-3.6808079-3.9477152c-.21605595-.22685912-.5746848-.2396177-.80643678-.0286898z"/>
    </g>
</svg>