<svg width="647" height="267" viewBox="0 0 647 267" xmlns="http://www.w3.org/2000/svg"><title>Pie Chart</title><g fill="none" fill-rule="evenodd"><path d="M311.52 148.716l83.39 83.39c20.454-20.457 31.83-46.553 34.11-73.293l-117.5-10.097z" fill="#F2F2F2" fill-rule="nonzero"/><path d="M427.556 216.476v-22.14h-40.89c-.368 0-.666-.3-.666-.668 0-.37.298-.668.666-.668h41.556c.367 0 .665.3.665.668v22.808c1.77.316 3.113 1.867 3.113 3.733 0 2.092-1.692 3.79-3.78 3.79-2.085 0-3.776-1.698-3.776-3.79 0-1.867 1.343-3.42 3.112-3.734z" fill="#013365" fill-rule="nonzero"/><path d="M427.684 128.326c-2.728-15.625-8.617-30.8-17.673-44.51l-98.492 64.9 117.5 10.096c.872-10.157.426-20.42-1.334-30.486" fill="#668DB5" fill-rule="nonzero"/><path d="M456.32 123.6h-53.64c-.376 0-.68.303-.68.678 0 .375.304.68.68.68h53.72c.405 1.692 1.93 2.952 3.748 2.952 2.127 0 3.852-1.725 3.852-3.852s-1.725-3.852-3.852-3.852c-1.973 0-3.6 1.482-3.827 3.393z" fill="#013365" fill-rule="nonzero"/><path d="M311.49 148.782l98.49-64.902c-4.316-6.536-9.35-12.732-15.103-18.486-28.51-28.51-67.984-39.366-104.853-32.58l21.466 115.968z" fill="#BFD0E0" fill-rule="nonzero"/><path d="M379.31 8.62h-43.945v75.786c0 .375-.305.68-.682.68-.377 0-.683-.305-.683-.68V7.94c0-.375.306-.68.683-.68h44.627c.322-1.804 1.908-3.175 3.815-3.175 2.14 0 3.875 1.726 3.875 3.855 0 2.13-1.736 3.855-3.875 3.855-1.907 0-3.493-1.37-3.815-3.176z" fill="#013365" fill-rule="nonzero"/><path d="M431.757 249h-1.347l-4.792-7.697-.04.013V249h-1.348v-9.953h1.347l4.792 7.683.04-.013v-7.67h1.347V249zm5.277.144c-1.03 0-1.85-.343-2.457-1.03-.61-.685-.913-1.575-.913-2.67v-.3c0-1.052.313-1.928.94-2.628.627-.7 1.368-1.05 2.225-1.05.997 0 1.75.302 2.262.903.51.6.765 1.403.765 2.405v.84h-4.798l-.022.035c.014.71.194 1.296.54 1.754.346.458.832.687 1.456.687.456 0 .856-.064 1.2-.194s.64-.31.892-.537l.526.874c-.264.26-.613.477-1.046.65-.433.173-.957.26-1.572.26zm-.205-6.618c-.452 0-.837.19-1.156.57-.32.382-.515.86-.588 1.433l.014.033h3.41v-.177c0-.53-.14-.97-.423-1.326-.283-.356-.702-.534-1.258-.534zm6.432 3.78l.157.896h.04l.19-.895 1.478-4.703h1.08l1.483 4.703.213.998h.04l.2-.998 1.162-4.703h1.34L448.498 249h-1.087l-1.428-4.505-.307-1.258-.04.007-.295 1.25-1.408 4.506h-1.087l-2.147-7.396h1.34l1.224 4.703zM456.9 249h-1.347v-10.664h1.346V249zm3.527 0h-1.347v-7.396h1.347V249zm0-9.29h-1.347v-1.374h1.347v1.374zm5.08 8.38c.445 0 .84-.137 1.178-.413.34-.275.51-.614.51-1.015h1.21l.013.04c.023.64-.26 1.205-.85 1.7-.59.494-1.278.742-2.062.742-1.076 0-1.898-.35-2.468-1.053-.57-.7-.854-1.583-.854-2.645v-.287c0-1.053.286-1.93.858-2.635.57-.704 1.393-1.056 2.464-1.056.866 0 1.573.255 2.122.765.55.51.815 1.137.797 1.88l-.014.04h-1.216c0-.45-.16-.834-.478-1.15-.32-.317-.723-.476-1.21-.476-.707 0-1.21.254-1.514.763-.303.507-.455 1.13-.455 1.868v.287c0 .757.15 1.387.45 1.89.302.504.808.756 1.52.756zm7.49 1.054c-1.03 0-1.848-.343-2.456-1.03-.608-.685-.912-1.575-.912-2.67v-.3c0-1.052.313-1.928.94-2.628.627-.7 1.368-1.05 2.225-1.05.998 0 1.752.302 2.263.903.51.6.765 1.403.765 2.405v.84h-4.798l-.02.035c.014.71.194 1.296.54 1.754.346.458.832.687 1.456.687.456 0 .856-.064 1.2-.194s.64-.31.892-.537l.526.874c-.264.26-.613.477-1.046.65-.433.173-.957.26-1.572.26zm-.204-6.618c-.45 0-.836.19-1.155.57-.32.382-.515.86-.588 1.433l.013.033h3.412v-.177c0-.53-.142-.97-.424-1.326-.282-.356-.7-.534-1.257-.534zm5.742-.922l.096 1.1c.247-.392.556-.696.927-.912.372-.217.794-.325 1.268-.325.798 0 1.415.233 1.853.7.437.468.656 1.19.656 2.164V249h-1.347v-4.642c0-.65-.128-1.114-.386-1.387-.256-.273-.65-.41-1.178-.41-.387 0-.73.094-1.03.28-.297.188-.536.443-.713.766V249h-1.348v-7.396h1.203zm9.762 6.487c.446 0 .84-.137 1.18-.413.34-.275.508-.614.508-1.015h1.21l.014.04c.022.64-.262 1.205-.852 1.7-.59.494-1.277.742-2.06.742-1.077 0-1.9-.35-2.47-1.053-.57-.7-.853-1.583-.853-2.645v-.287c0-1.053.286-1.93.858-2.635.57-.704 1.393-1.056 2.464-1.056.866 0 1.573.255 2.122.765.55.51.814 1.137.796 1.88l-.014.04h-1.217c0-.45-.16-.834-.478-1.15-.32-.317-.722-.476-1.21-.476-.707 0-1.21.254-1.514.763-.303.507-.455 1.13-.455 1.868v.287c0 .757.15 1.387.45 1.89.302.504.808.756 1.52.756zm7.492 1.054c-1.03 0-1.85-.343-2.458-1.03-.61-.685-.913-1.575-.913-2.67v-.3c0-1.052.312-1.928.94-2.628.626-.7 1.367-1.05 2.224-1.05.998 0 1.752.302 2.263.903.51.6.765 1.403.765 2.405v.84h-4.8l-.02.035c.015.71.195 1.296.54 1.754.347.458.833.687 1.457.687.455 0 .855-.064 1.2-.194.343-.13.64-.31.89-.537l.527.874c-.264.26-.613.477-1.046.65-.432.173-.956.26-1.57.26zm-.206-6.618c-.45 0-.836.19-1.155.57-.32.382-.516.86-.59 1.433l.014.033h3.412v-.177c0-.53-.142-.97-.424-1.326-.283-.356-.702-.534-1.258-.534zM508.148 249c-.045-.223-.08-.42-.106-.59-.025-.172-.04-.344-.044-.517-.25.355-.578.652-.98.892-.404.24-.838.36-1.303.36-.77 0-1.357-.2-1.76-.593-.404-.394-.605-.937-.605-1.63 0-.707.286-1.26.858-1.658.57-.4 1.347-.598 2.327-.598h1.463v-.73c0-.434-.132-.777-.396-1.03-.265-.253-.638-.38-1.122-.38-.432 0-.785.11-1.056.332-.27.22-.406.486-.406.796h-1.286l-.013-.04c-.03-.538.225-1.03.76-1.477.536-.447 1.228-.67 2.076-.67.838 0 1.513.213 2.023.64.51.425.765 1.04.765 1.84v3.563c0 .264.013.52.04.765.028.246.078.488.15.725h-1.387zm-2.235-.984c.488 0 .927-.126 1.32-.376.39-.25.647-.538.765-.862v-1.203h-1.51c-.543 0-.977.137-1.303.41-.326.274-.49.595-.49.964 0 .327.104.587.31.78.204.19.507.286.908.286zm11.69-2.434c0 1.066-.256 1.927-.766 2.58-.51.655-1.215.982-2.112.982-.456 0-.856-.077-1.2-.23-.344-.152-.637-.38-.88-.686v3.616H511.3v-10.24h1.032l.212.957c.24-.355.542-.626.902-.813.36-.187.78-.28 1.258-.28.916 0 1.628.363 2.136 1.09.508.727.763 1.687.763 2.88v.145zm-1.347-.144c0-.838-.165-1.527-.496-2.067-.33-.54-.817-.81-1.46-.81-.387 0-.717.088-.99.264-.274.175-.495.416-.664.72v3.576c.17.305.39.544.664.714.273.17.608.257 1.004.257.638 0 1.122-.233 1.45-.7.328-.467.492-1.07.492-1.808v-.144zm9.304.144c0 1.066-.256 1.927-.766 2.58-.51.655-1.215.982-2.112.982-.456 0-.856-.077-1.2-.23-.344-.152-.637-.38-.878-.686v3.616h-1.347v-10.24h1.032l.21.957c.243-.355.543-.626.903-.813.36-.187.78-.28 1.258-.28.917 0 1.63.363 2.137 1.09.51.727.763 1.687.763 2.88v.145zm-1.347-.144c0-.838-.165-1.527-.496-2.067-.33-.54-.817-.81-1.46-.81-.387 0-.717.088-.99.264-.274.175-.495.416-.663.72v3.576c.168.305.39.544.663.714.273.17.608.257 1.004.257.64 0 1.123-.233 1.45-.7.33-.467.493-1.07.493-1.808v-.144zM528.67 249h-1.347v-10.664h1.347V249zm3.527 0h-1.346v-7.396h1.347V249zm0-9.29h-1.346v-1.374h1.347v1.374zm5.08 8.38c.446 0 .84-.137 1.18-.413.338-.275.508-.614.508-1.015h1.21l.013.04c.023.64-.26 1.205-.85 1.7-.59.494-1.278.742-2.062.742-1.075 0-1.898-.35-2.467-1.053-.57-.7-.856-1.583-.856-2.645v-.287c0-1.053.286-1.93.858-2.635.572-.704 1.393-1.056 2.464-1.056.866 0 1.574.255 2.123.765.548.51.814 1.137.795 1.88l-.013.04h-1.217c0-.45-.16-.834-.48-1.15-.318-.317-.72-.476-1.21-.476-.705 0-1.21.254-1.513.763-.303.507-.454 1.13-.454 1.868v.287c0 .757.15 1.387.45 1.89.302.504.807.756 1.518.756zm8.968.91c-.045-.223-.08-.42-.106-.59-.026-.172-.04-.344-.045-.517-.25.355-.578.652-.98.892-.405.24-.84.36-1.303.36-.77 0-1.357-.2-1.76-.593-.404-.394-.606-.937-.606-1.63 0-.707.286-1.26.858-1.658.572-.4 1.348-.598 2.328-.598h1.463v-.73c0-.434-.132-.777-.397-1.03-.264-.253-.638-.38-1.12-.38-.434 0-.786.11-1.057.332-.27.22-.406.486-.406.796h-1.285l-.015-.04c-.027-.538.227-1.03.763-1.477.535-.447 1.227-.67 2.074-.67.84 0 1.513.213 2.024.64.51.425.765 1.04.765 1.84v3.563c0 .264.015.52.042.765.028.246.078.488.15.725h-1.387zm-2.235-.984c.487 0 .927-.126 1.32-.376.39-.25.646-.538.765-.862v-1.203h-1.51c-.543 0-.977.137-1.303.41-.326.274-.49.595-.49.964 0 .327.104.587.31.78.204.19.507.286.908.286zm7.164-8.197v1.784h1.4v.998h-1.4v4.49c0 .347.072.59.215.732.143.14.333.212.57.212.077 0 .163-.01.256-.027.094-.02.177-.042.25-.07l.178.923c-.1.082-.248.15-.44.202-.195.052-.39.08-.586.08-.547 0-.982-.167-1.306-.497-.323-.33-.485-.85-.485-1.555v-4.49h-1.176v-1h1.177v-1.784h1.347zm4.518 9.18h-1.346v-7.396h1.346V249zm0-9.29h-1.346v-1.374h1.346v1.374zm1.757 5.523c0-1.093.295-1.995.888-2.703.592-.71 1.397-1.063 2.413-1.063 1.026 0 1.836.353 2.43 1.06.596.706.893 1.608.893 2.706v.15c0 1.104-.296 2.006-.888 2.708-.593.703-1.4 1.054-2.42 1.054s-1.83-.352-2.424-1.057c-.593-.704-.89-1.605-.89-2.703v-.15zm1.346.15c0 .785.165 1.432.496 1.942.33.51.82.766 1.473.766.642 0 1.13-.254 1.463-.765.332-.51.5-1.157.5-1.94v-.152c0-.774-.17-1.42-.504-1.934-.335-.516-.826-.774-1.473-.774-.642 0-1.128.258-1.458.773-.33.514-.496 1.16-.496 1.933v.15zm8.128-3.78l.096 1.1c.246-.39.554-.695.926-.91.37-.218.794-.326 1.268-.326.797 0 1.415.233 1.852.7.438.468.657 1.19.657 2.164V249h-1.347v-4.642c0-.65-.13-1.114-.386-1.387-.258-.273-.65-.41-1.18-.41-.387 0-.73.094-1.028.28-.3.188-.537.443-.715.766V249h-1.346v-7.396h1.204zm11.054 5.435c0-.296-.113-.54-.34-.73-.224-.193-.652-.36-1.28-.5-.898-.196-1.574-.462-2.027-.797-.453-.334-.68-.79-.68-1.37 0-.6.256-1.114.766-1.537.51-.424 1.176-.636 1.996-.636.86 0 1.546.22 2.054.663.508.442.75.98.728 1.613l-.013.04h-1.284c0-.322-.136-.613-.407-.87-.272-.258-.63-.387-1.078-.387-.478 0-.834.105-1.066.315-.233.21-.35.463-.35.76 0 .29.104.52.31.69.204.17.62.32 1.25.45.934.202 1.63.474 2.085.818.456.344.684.806.684 1.384 0 .657-.265 1.188-.796 1.593-.53.406-1.225.61-2.082.61-.943 0-1.686-.24-2.228-.72-.543-.478-.8-1.036-.773-1.674l.014-.04h1.284c.023.478.2.828.533 1.05.333.22.723.33 1.17.33.478 0 .853-.096 1.124-.29.272-.193.408-.447.408-.762zM480.624 128.437h-4.17L475.51 131h-1.373l3.848-9.953h1.156L482.93 131h-1.374l-.93-2.563zm-3.753-1.128h3.35l-1.64-4.534h-.04l-1.67 4.533zm6.864.128c0-1.19.254-2.148.763-2.877.508-.73 1.22-1.093 2.136-1.093.433 0 .817.08 1.152.24.335.16.62.39.858.696v-4.067h1.346V131h-1.1l-.16-.91c-.24.347-.536.61-.887.787-.35.178-.76.267-1.224.267-.903 0-1.61-.327-2.12-.98-.51-.655-.766-1.516-.766-2.582v-.144zm1.347.144c0 .747.154 1.346.46 1.794.304.45.778.674 1.42.674.402 0 .74-.09 1.013-.274.273-.182.496-.437.67-.765v-3.45c-.174-.307-.398-.55-.674-.73-.276-.18-.608-.27-.995-.27-.648 0-1.125.267-1.433.8-.307.534-.46 1.226-.46 2.078v.144zm6.61-.144c0-1.19.255-2.148.764-2.877.508-.73 1.22-1.093 2.136-1.093.433 0 .817.08 1.152.24.335.16.62.39.858.696v-4.067h1.346V131h-1.1l-.158-.91c-.24.347-.537.61-.888.787-.35.178-.76.267-1.224.267-.902 0-1.61-.327-2.12-.98-.51-.655-.765-1.516-.765-2.582v-.144zm1.348.144c0 .747.153 1.346.458 1.794.305.45.78.674 1.422.674.4 0 .738-.09 1.012-.274.273-.182.496-.437.67-.765v-3.45c-.174-.307-.398-.55-.674-.73-.275-.18-.607-.27-.994-.27-.647 0-1.125.267-1.432.8-.308.534-.462 1.226-.462 2.078v.144zm8.374 3.418h-1.347v-7.396h1.347V131zm0-9.29h-1.347v-1.374h1.347v1.374zm3.85.11v1.784h1.4v.998h-1.4v4.49c0 .347.07.59.214.732.144.14.334.212.57.212.078 0 .164-.01.257-.027.094-.02.177-.042.25-.07l.177.923c-.1.082-.247.15-.44.202-.194.052-.39.08-.585.08-.547 0-.982-.167-1.306-.497-.324-.33-.486-.85-.486-1.555v-4.49h-1.176v-1h1.176v-1.784h1.347zm4.517 9.18h-1.347v-7.396h1.346V131zm0-9.29h-1.347v-1.374h1.346v1.374zm1.756 5.523c0-1.093.296-1.995.89-2.703.59-.71 1.396-1.063 2.412-1.063 1.025 0 1.835.353 2.43 1.06.595.706.892 1.608.892 2.706v.15c0 1.104-.296 2.006-.89 2.708-.59.703-1.398 1.054-2.418 1.054-1.02 0-1.83-.352-2.424-1.057-.595-.704-.892-1.605-.892-2.703v-.15zm1.347.15c0 .785.165 1.432.495 1.942.33.51.822.766 1.474.766.642 0 1.13-.254 1.462-.765.333-.51.5-1.157.5-1.94v-.152c0-.774-.168-1.42-.503-1.934-.334-.516-.825-.774-1.472-.774-.643 0-1.13.258-1.46.773-.33.514-.495 1.16-.495 1.933v.15zm8.128-3.78l.096 1.1c.247-.39.555-.695.927-.91.37-.218.794-.326 1.268-.326.798 0 1.416.233 1.853.7.438.468.657 1.19.657 2.164V131h-1.347v-4.642c0-.65-.13-1.114-.386-1.387-.258-.273-.65-.41-1.18-.41-.387 0-.73.094-1.028.28-.3.188-.538.443-.716.766V131h-1.346v-7.396h1.203zm11.3 7.397c-.045-.223-.08-.42-.105-.59-.025-.172-.04-.344-.045-.517-.25.355-.577.652-.98.892-.404.24-.838.36-1.303.36-.77 0-1.357-.2-1.76-.593-.404-.394-.605-.937-.605-1.63 0-.707.286-1.26.858-1.658.572-.4 1.347-.598 2.327-.598h1.463v-.73c0-.434-.132-.777-.396-1.03-.265-.253-.638-.38-1.12-.38-.434 0-.786.11-1.058.332-.27.22-.406.486-.406.796h-1.285l-.014-.04c-.026-.538.228-1.03.763-1.477.536-.447 1.227-.67 2.075-.67.838 0 1.513.213 2.023.64.512.425.767 1.04.767 1.84v3.563c0 .264.014.52.04.765.028.246.078.488.15.725h-1.386zm-2.235-.984c.488 0 .928-.126 1.32-.376.39-.25.647-.538.765-.862v-1.203h-1.51c-.543 0-.977.137-1.303.41-.326.274-.49.595-.49.964 0 .327.104.587.31.78.204.19.507.286.908.286zm6.843.984h-1.347v-10.664h1.348V131zm9.85-1.962c0-.296-.112-.54-.338-.73-.225-.193-.653-.36-1.282-.5-.897-.196-1.573-.462-2.026-.797-.454-.334-.68-.79-.68-1.37 0-.6.255-1.114.765-1.537.51-.424 1.176-.636 1.996-.636.86 0 1.546.22 2.054.663.508.442.75.98.728 1.613l-.013.04h-1.285c0-.322-.136-.613-.407-.87-.27-.258-.63-.387-1.077-.387-.478 0-.834.105-1.066.315-.233.21-.35.463-.35.76 0 .29.104.52.31.69.204.17.62.32 1.25.45.934.202 1.63.474 2.085.818.455.344.683.806.683 1.384 0 .657-.265 1.188-.796 1.593-.532.406-1.226.61-2.083.61-.943 0-1.686-.24-2.228-.72-.544-.478-.8-1.036-.774-1.674l.014-.04h1.285c.023.478.2.828.533 1.05.333.22.723.33 1.17.33.478 0 .853-.096 1.124-.29.27-.193.407-.447.407-.762zm7.568 1.962c-.046-.223-.08-.42-.106-.59-.025-.172-.04-.344-.044-.517-.25.355-.578.652-.98.892-.405.24-.84.36-1.304.36-.77 0-1.357-.2-1.76-.593-.403-.394-.605-.937-.605-1.63 0-.707.286-1.26.858-1.658.572-.4 1.348-.598 2.328-.598h1.463v-.73c0-.434-.133-.777-.397-1.03-.265-.253-.64-.38-1.122-.38-.433 0-.785.11-1.056.332-.27.22-.407.486-.407.796h-1.285l-.014-.04c-.027-.538.227-1.03.762-1.477.536-.447 1.228-.67 2.075-.67.84 0 1.513.213 2.024.64.51.425.765 1.04.765 1.84v3.563c0 .264.014.52.04.765.03.246.08.488.152.725h-1.388zm-2.235-.984c.488 0 .928-.126 1.32-.376s.647-.538.766-.862v-1.203h-1.51c-.544 0-.978.137-1.303.41-.326.274-.49.595-.49.964 0 .327.103.587.308.78.206.19.51.286.91.286zm6.843.984h-1.346v-10.664h1.346V131zm5.14.144c-1.03 0-1.848-.343-2.457-1.03-.608-.685-.912-1.575-.912-2.67v-.3c0-1.052.313-1.928.94-2.628.626-.7 1.368-1.05 2.225-1.05.997 0 1.75.302 2.262.903.51.6.765 1.403.765 2.405v.84h-4.8l-.02.035c.015.71.195 1.296.54 1.754.347.458.833.687 1.457.687.456 0 .856-.064 1.2-.194s.64-.31.892-.537l.526.874c-.264.26-.613.477-1.046.65-.433.173-.957.26-1.572.26zm-.204-6.618c-.452 0-.837.19-1.156.57-.32.382-.515.86-.588 1.433l.013.033h3.41v-.177c0-.53-.14-.97-.423-1.326-.283-.356-.702-.534-1.258-.534zm8.838 4.512c0-.296-.113-.54-.34-.73-.224-.193-.65-.36-1.28-.5-.898-.196-1.574-.462-2.027-.797-.453-.334-.68-.79-.68-1.37 0-.6.256-1.114.766-1.537.51-.424 1.176-.636 1.996-.636.862 0 1.546.22 2.055.663.508.442.75.98.728 1.613l-.014.04h-1.284c0-.322-.136-.613-.407-.87-.272-.258-.63-.387-1.078-.387-.478 0-.834.105-1.066.315-.232.21-.35.463-.35.76 0 .29.104.52.31.69.204.17.62.32 1.25.45.934.202 1.63.474 2.085.818.457.344.684.806.684 1.384 0 .657-.265 1.188-.796 1.593-.53.406-1.225.61-2.08.61-.945 0-1.688-.24-2.23-.72-.542-.478-.8-1.036-.772-1.674l.013-.04h1.284c.023.478.2.828.534 1.05.332.22.722.33 1.17.33.477 0 .852-.096 1.123-.29.272-.193.408-.447.408-.762zm4.197 1.634l-1.025 2.092h-.8l.478-2.16v-1.115h1.347v1.182zm6.27-7.068l.094.97c.24-.35.547-.623.92-.817.37-.193.802-.29 1.294-.29s.915.114 1.268.342c.353.226.62.568.797 1.024.23-.42.54-.752.92-.998.384-.246.83-.37 1.34-.37.753 0 1.348.26 1.785.777.438.517.657 1.295.657 2.334V131h-1.347v-4.437c0-.73-.125-1.245-.376-1.548-.252-.303-.625-.454-1.122-.454-.46 0-.833.16-1.118.48-.285.318-.452.72-.502 1.21V131h-1.354v-4.437c0-.692-.128-1.2-.386-1.52-.257-.322-.628-.482-1.11-.482-.41 0-.748.085-1.012.253-.265.17-.468.406-.61.71V131h-1.346v-7.396h1.204zM598.762 131c-.046-.223-.08-.42-.106-.59-.025-.172-.04-.344-.045-.517-.25.355-.577.652-.98.892-.404.24-.838.36-1.303.36-.77 0-1.358-.2-1.76-.593-.404-.394-.606-.937-.606-1.63 0-.707.286-1.26.858-1.658.572-.4 1.348-.598 2.327-.598h1.462v-.73c0-.434-.132-.777-.396-1.03-.265-.253-.638-.38-1.12-.38-.434 0-.786.11-1.057.332-.273.22-.408.486-.408.796h-1.285l-.014-.04c-.027-.538.227-1.03.762-1.477.536-.447 1.227-.67 2.075-.67.838 0 1.513.213 2.023.64.51.425.766 1.04.766 1.84v3.563c0 .264.013.52.04.765.027.246.077.488.15.725h-1.387zm-2.236-.984c.488 0 .928-.126 1.32-.376s.647-.538.765-.862v-1.203h-1.51c-.543 0-.977.137-1.303.41-.327.274-.49.595-.49.964 0 .327.103.587.308.78.205.19.508.286.91.286zm8.887-5.223l-.69-.04c-.356 0-.655.083-.9.252-.243.17-.43.405-.563.71V131h-1.346v-7.396h1.203l.13 1.08c.21-.383.468-.682.776-.896.308-.214.662-.32 1.063-.32.1 0 .196.007.287.023.09.017.166.034.226.052l-.186 1.25zm3.527 2.796h-.874V131h-1.346v-10.664h1.346v6.18h.862l2.023-2.912h1.614l-2.53 3.363 2.893 4.033h-1.586l-2.4-3.41zm7.883 3.554c-1.03 0-1.85-.343-2.457-1.03-.61-.685-.913-1.575-.913-2.67v-.3c0-1.052.313-1.928.94-2.628.627-.7 1.368-1.05 2.225-1.05.998 0 1.752.302 2.263.903.51.6.766 1.403.766 2.405v.84h-4.798l-.02.035c.013.71.193 1.296.54 1.754.346.458.83.687 1.455.687.456 0 .856-.064 1.2-.194s.64-.31.892-.537l.526.874c-.263.26-.612.477-1.044.65-.433.173-.958.26-1.573.26zm-.205-6.618c-.45 0-.836.19-1.155.57-.32.382-.515.86-.588 1.433l.014.033h3.41v-.177c0-.53-.14-.97-.424-1.326-.283-.356-.702-.534-1.258-.534zm6.317-2.707v1.784h1.4v.998h-1.4v4.49c0 .347.07.59.215.732.143.14.334.212.57.212.078 0 .164-.01.257-.027.093-.02.177-.042.25-.07l.177.923c-.1.082-.247.15-.44.202-.194.052-.39.08-.585.08-.548 0-.983-.167-1.307-.497-.323-.33-.485-.85-.485-1.555v-4.49h-1.176v-1h1.176v-1.784h1.347zm4.518 9.18h-1.347v-7.396h1.347V131zm0-9.29h-1.347v-1.374h1.347v1.374zm3.275 1.894l.095 1.1c.246-.392.555-.696.927-.912.37-.217.794-.325 1.268-.325.797 0 1.415.233 1.852.7.438.468.656 1.19.656 2.164V131h-1.346v-4.642c0-.65-.13-1.114-.387-1.387-.257-.273-.65-.41-1.18-.41-.386 0-.73.094-1.028.28-.298.188-.536.443-.714.766V131h-1.346v-7.396h1.204zm6.46 3.834c0-1.19.26-2.148.78-2.877.518-.73 1.236-1.093 2.152-1.093.47 0 .882.094 1.237.283.356.19.652.462.89.817l.163-.963h1.073v7.437c0 .95-.275 1.677-.827 2.185-.55.508-1.346.762-2.385.762-.355 0-.74-.05-1.15-.147-.414-.098-.777-.23-1.092-.4l.342-1.045c.242.136.533.247.875.33.342.085.68.128 1.012.128.656 0 1.133-.15 1.432-.448.297-.3.447-.753.447-1.364v-.833c-.242.31-.53.543-.868.7-.34.158-.726.237-1.164.237-.906 0-1.62-.33-2.14-.985-.52-.657-.78-1.516-.78-2.578v-.144zm1.346.144c0 .743.157 1.34.472 1.79.314.452.793.678 1.435.678.407 0 .747-.092 1.02-.277.273-.185.5-.446.677-.783v-3.404c-.173-.315-.4-.564-.677-.75-.278-.183-.613-.275-1.005-.275-.643 0-1.123.27-1.442.807-.32.538-.48 1.228-.48 2.07v.145zm8.08 3.09l-1.025 2.092h-.8l.478-2.16v-1.115h1.346v1.182zM479.523 149c-.045-.223-.08-.42-.106-.59-.025-.172-.04-.344-.044-.517-.25.355-.578.652-.98.892-.404.24-.838.36-1.303.36-.77 0-1.357-.2-1.76-.593-.404-.394-.605-.937-.605-1.63 0-.707.286-1.26.858-1.658.57-.4 1.347-.598 2.327-.598h1.463v-.73c0-.434-.132-.777-.396-1.03-.265-.253-.638-.38-1.122-.38-.432 0-.785.11-1.056.332-.272.22-.407.486-.407.796h-1.286l-.013-.04c-.028-.538.226-1.03.762-1.477.535-.447 1.227-.67 2.075-.67.84 0 1.514.213 2.024.64.51.425.766 1.04.766 1.84v3.563c0 .264.013.52.04.765.028.246.078.488.15.725h-1.387zm-2.235-.984c.488 0 .927-.126 1.32-.376.39-.25.647-.538.765-.862v-1.203h-1.51c-.543 0-.977.137-1.303.41-.326.274-.49.595-.49.964 0 .327.104.587.31.78.204.19.507.286.908.286zm6.59-6.412l.096 1.1c.246-.392.554-.696.926-.912.37-.217.794-.325 1.268-.325.797 0 1.415.233 1.853.7.438.468.657 1.19.657 2.164V149h-1.347v-4.642c0-.65-.13-1.114-.386-1.387-.258-.273-.65-.41-1.18-.41-.387 0-.73.094-1.028.28-.3.188-.537.443-.715.766V149h-1.345v-7.396h1.203zm6.446 3.834c0-1.19.254-2.148.762-2.877.51-.73 1.22-1.093 2.137-1.093.433 0 .817.08 1.152.24.334.16.62.39.857.696v-4.067h1.347V149h-1.1l-.16-.91c-.24.347-.536.61-.887.787-.35.178-.76.267-1.224.267-.903 0-1.61-.327-2.12-.98-.51-.655-.766-1.516-.766-2.582v-.144zm1.347.144c0 .747.154 1.346.46 1.794.304.45.778.674 1.42.674.402 0 .74-.09 1.012-.274.274-.182.497-.437.67-.765v-3.45c-.173-.307-.397-.55-.673-.73-.277-.18-.608-.27-.996-.27-.647 0-1.124.267-1.432.8-.307.534-.46 1.226-.46 2.078v.144zm11.6-3.978l.097.97c.242-.35.548-.623.92-.817.37-.193.803-.29 1.295-.29.492 0 .915.114 1.268.342.353.226.62.568.796 1.024.233-.42.54-.752.923-.998.382-.246.83-.37 1.34-.37.75 0 1.346.26 1.783.777.438.517.657 1.295.657 2.334V149h-1.347v-4.437c0-.73-.125-1.245-.376-1.548-.25-.303-.624-.454-1.12-.454-.46 0-.834.16-1.12.48-.284.318-.45.72-.5 1.21V149h-1.355v-4.437c0-.692-.13-1.2-.386-1.52-.257-.322-.628-.482-1.11-.482-.41 0-.748.085-1.013.253-.264.17-.467.406-.608.71V149h-1.347v-7.396h1.203zm15.73 6.302c-.23.397-.53.702-.895.916-.364.214-.786.322-1.264.322-.806 0-1.435-.258-1.886-.773-.45-.514-.677-1.316-.677-2.405v-4.36h1.347v4.374c0 .787.116 1.33.35 1.625.23.297.593.445 1.086.445.478 0 .873-.097 1.186-.29.312-.194.548-.47.707-.824v-5.332h1.347V149h-1.21l-.09-1.094zM523.72 149h-1.347v-10.664h1.348V149zm3.848-9.18v1.784h1.402v.998h-1.402v4.49c0 .347.072.59.216.732.143.14.334.212.57.212.078 0 .163-.01.257-.027.092-.02.175-.042.248-.07l.178.923c-.1.082-.247.15-.44.202-.194.052-.39.08-.585.08-.546 0-.98-.167-1.305-.497-.323-.33-.485-.85-.485-1.555v-4.49h-1.176v-1h1.176v-1.784h1.346zm4.52 9.18h-1.348v-7.396h1.347V149zm0-9.29h-1.348v-1.374h1.347v1.374zm3.526 9.29h-1.346v-10.664h1.346V149zm3.528 0h-1.347v-7.396h1.347V149zm0-9.29h-1.347v-1.374h1.347v1.374zm3.274 1.894l.096 1.1c.246-.392.555-.696.926-.912.37-.217.794-.325 1.268-.325.798 0 1.415.233 1.853.7.437.468.656 1.19.656 2.164V149h-1.347v-4.642c0-.65-.13-1.114-.386-1.387-.258-.273-.65-.41-1.18-.41-.387 0-.73.094-1.028.28-.3.188-.537.443-.714.766V149h-1.347v-7.396h1.204zm6.46 3.834c0-1.19.26-2.148.78-2.877.52-.73 1.237-1.093 2.153-1.093.47 0 .88.094 1.237.283.355.19.652.462.89.817l.163-.963h1.073v7.437c0 .95-.276 1.677-.827 2.185-.552.508-1.347.762-2.386.762-.355 0-.74-.05-1.152-.147-.412-.098-.776-.23-1.09-.4l.342-1.045c.24.136.533.247.875.33.34.085.68.128 1.01.128.658 0 1.135-.15 1.433-.448.3-.3.448-.753.448-1.364v-.833c-.24.31-.53.543-.868.7-.337.158-.725.237-1.162.237-.907 0-1.62-.33-2.14-.985-.52-.657-.78-1.516-.78-2.578v-.144zm1.347.144c0 .743.158 1.34.472 1.79.315.452.793.678 1.436.678.406 0 .745-.092 1.018-.277.274-.185.5-.446.677-.783v-3.404c-.173-.315-.4-.564-.677-.75-.278-.183-.612-.275-1.004-.275-.643 0-1.124.27-1.443.807-.32.538-.48 1.228-.48 2.07v.145zm11.6 2.324c-.23.397-.53.702-.894.916-.365.214-.786.322-1.265.322-.806 0-1.434-.258-1.886-.773-.45-.514-.676-1.316-.676-2.405v-4.36h1.346v4.374c0 .787.117 1.33.35 1.625.23.297.594.445 1.086.445.478 0 .874-.097 1.186-.29.312-.194.548-.47.707-.824v-5.332h1.347V149h-1.21l-.09-1.094zM569.63 149c-.046-.223-.08-.42-.106-.59-.025-.172-.04-.344-.044-.517-.25.355-.578.652-.98.892-.405.24-.84.36-1.304.36-.77 0-1.357-.2-1.76-.593-.403-.394-.605-.937-.605-1.63 0-.707.285-1.26.857-1.658.572-.4 1.348-.598 2.328-.598h1.463v-.73c0-.434-.133-.777-.397-1.03-.263-.253-.637-.38-1.12-.38-.433 0-.785.11-1.056.332-.27.22-.407.486-.407.796h-1.285l-.014-.04c-.027-.538.227-1.03.762-1.477.536-.447 1.227-.67 2.075-.67.84 0 1.513.213 2.024.64.51.425.764 1.04.764 1.84v3.563c0 .264.014.52.04.765.03.246.08.488.152.725h-1.388zm-2.235-.984c.487 0 .927-.126 1.32-.376.39-.25.646-.538.765-.862v-1.203h-1.51c-.544 0-.978.137-1.303.41-.326.274-.49.595-.49.964 0 .327.103.587.308.78.205.19.51.286.91.286zm6.842.984h-1.346v-10.664h1.345V149zm8.56-.91c.446 0 .84-.137 1.178-.413.34-.275.51-.614.51-1.015h1.21l.013.04c.023.64-.26 1.205-.85 1.7-.59.494-1.278.742-2.062.742-1.076 0-1.898-.35-2.468-1.053-.57-.7-.854-1.583-.854-2.645v-.287c0-1.053.286-1.93.858-2.635.572-.704 1.393-1.056 2.464-1.056.866 0 1.573.255 2.123.765.55.51.814 1.137.796 1.88l-.014.04h-1.218c0-.45-.16-.834-.478-1.15-.32-.317-.722-.476-1.21-.476-.706 0-1.21.254-1.514.763-.303.507-.455 1.13-.455 1.868v.287c0 .757.15 1.387.45 1.89.302.504.808.756 1.52.756zm9.118-.184c-.232.397-.53.702-.895.916-.365.214-.787.322-1.265.322-.807 0-1.436-.258-1.887-.773-.45-.514-.677-1.316-.677-2.405v-4.36h1.346v4.374c0 .787.116 1.33.35 1.625.23.297.593.445 1.086.445.478 0 .874-.097 1.186-.29.312-.194.548-.47.707-.824v-5.332h1.347V149h-1.21l-.09-1.094zm7.56-.868c0-.296-.112-.54-.338-.73-.225-.193-.653-.36-1.28-.5-.9-.196-1.575-.462-2.028-.797-.454-.334-.68-.79-.68-1.37 0-.6.255-1.114.765-1.537.51-.424 1.176-.636 1.996-.636.862 0 1.546.22 2.054.663.51.442.75.98.728 1.613l-.013.04h-1.285c0-.322-.136-.613-.407-.87-.27-.258-.63-.387-1.077-.387-.478 0-.834.105-1.066.315-.233.21-.35.463-.35.76 0 .29.104.52.31.69.204.17.62.32 1.25.45.934.202 1.63.474 2.085.818.455.344.683.806.683 1.384 0 .657-.265 1.188-.796 1.593-.53.406-1.225.61-2.082.61-.943 0-1.686-.24-2.228-.72-.542-.478-.8-1.036-.773-1.674l.015-.04h1.285c.023.478.2.828.533 1.05.333.22.723.33 1.17.33.478 0 .853-.096 1.124-.29.27-.193.407-.447.407-.762zm4.8-7.22v1.786h1.4v.998h-1.4v4.49c0 .347.07.59.215.732.143.14.334.212.57.212.078 0 .164-.01.257-.027.093-.02.177-.042.25-.07l.177.923c-.1.082-.247.15-.44.202-.194.052-.39.08-.585.08-.547 0-.982-.167-1.306-.497-.322-.33-.484-.85-.484-1.555v-4.49h-1.176v-1h1.176v-1.784h1.346zm2.748 5.415c0-1.093.297-1.995.89-2.703.592-.71 1.396-1.063 2.412-1.063 1.026 0 1.836.353 2.43 1.06.595.706.893 1.608.893 2.706v.15c0 1.104-.297 2.006-.89 2.708-.592.703-1.398 1.054-2.42 1.054-1.02 0-1.828-.352-2.422-1.057-.595-.704-.892-1.605-.892-2.703v-.15zm1.347.15c0 .785.165 1.432.496 1.942.33.51.82.766 1.473.766.643 0 1.13-.254 1.463-.765.332-.51.498-1.157.498-1.94v-.152c0-.774-.168-1.42-.503-1.934-.335-.516-.826-.774-1.473-.774-.642 0-1.13.258-1.46.773-.33.514-.495 1.16-.495 1.933v.15zm8.128-3.78l.096.97c.242-.35.55-.622.92-.816.372-.193.803-.29 1.296-.29.492 0 .915.114 1.268.342.353.226.618.568.796 1.024.233-.42.54-.752.923-.998s.83-.37 1.34-.37c.752 0 1.346.26 1.784.777.437.517.656 1.295.656 2.334V149h-1.346v-4.437c0-.73-.126-1.245-.376-1.548-.25-.303-.624-.454-1.12-.454-.46 0-.833.16-1.118.48-.285.318-.452.72-.503 1.21V149h-1.354v-4.437c0-.692-.13-1.2-.386-1.52-.258-.322-.628-.482-1.11-.482-.41 0-.75.085-1.013.253-.264.17-.467.406-.608.71V149h-1.348v-7.396h1.203zm14.103 7.54c-1.03 0-1.85-.342-2.458-1.028-.608-.686-.912-1.576-.912-2.67v-.3c0-1.053.313-1.93.94-2.63.626-.698 1.368-1.048 2.225-1.048.998 0 1.752.3 2.262.902.51.6.766 1.403.766 2.405v.84h-4.798l-.02.035c.013.71.193 1.296.54 1.754.346.458.83.687 1.456.687.455 0 .855-.064 1.2-.194.343-.13.64-.31.89-.537l.528.874c-.265.26-.613.477-1.046.65-.433.173-.957.26-1.572.26zm-.205-6.617c-.452 0-.837.19-1.156.57-.32.382-.515.86-.588 1.433l.013.033h3.41v-.177c0-.53-.14-.97-.423-1.326-.282-.356-.7-.534-1.257-.534zm8.04.267l-.692-.04c-.354 0-.654.083-.898.252-.244.17-.432.405-.564.71V149h-1.346v-7.396h1.203l.13 1.08c.21-.383.468-.682.776-.896.308-.214.662-.32 1.064-.32.1 0 .195.007.287.023.092.017.167.034.226.052l-.184 1.25zM479.277 165.038c0-.296-.112-.54-.338-.73-.227-.193-.654-.36-1.283-.5-.898-.196-1.573-.462-2.027-.797-.453-.334-.68-.79-.68-1.37 0-.6.255-1.114.766-1.537.51-.424 1.176-.636 1.996-.636.86 0 1.546.22 2.054.663.508.442.75.98.728 1.613l-.014.04h-1.285c0-.322-.135-.613-.406-.87-.273-.258-.63-.387-1.078-.387-.48 0-.834.105-1.066.315-.233.21-.35.463-.35.76 0 .29.103.52.308.69.206.17.623.32 1.25.45.936.202 1.63.474 2.086.818.456.344.684.806.684 1.384 0 .657-.265 1.188-.796 1.593-.53.406-1.225.61-2.082.61-.943 0-1.686-.24-2.228-.72-.543-.478-.8-1.036-.773-1.674l.014-.04h1.284c.023.478.2.828.533 1.05.333.22.722.33 1.17.33.478 0 .852-.096 1.124-.29.272-.193.407-.447.407-.762zm7.718.868c-.232.397-.53.702-.895.916-.365.214-.787.322-1.265.322-.807 0-1.436-.258-1.887-.773-.45-.514-.677-1.316-.677-2.405v-4.36h1.348v4.374c0 .787.116 1.33.35 1.625.23.297.594.445 1.086.445.478 0 .874-.097 1.186-.29.312-.194.548-.47.707-.824v-5.332h1.347V167h-1.21l-.09-1.094zm9.564-2.324c0 1.066-.257 1.927-.767 2.58-.51.655-1.215.982-2.112.982-.455 0-.855-.077-1.2-.23-.343-.152-.636-.38-.877-.686v3.616h-1.347v-10.24h1.032l.212.957c.242-.355.542-.626.902-.813.36-.187.78-.28 1.258-.28.916 0 1.628.363 2.136 1.09.51.727.763 1.687.763 2.88v.145zm-1.348-.144c0-.838-.165-1.527-.496-2.067-.33-.54-.817-.81-1.46-.81-.387 0-.717.088-.99.264-.274.175-.495.416-.663.72v3.576c.168.305.39.544.663.714.273.17.608.257 1.005.257.64 0 1.122-.233 1.45-.7.328-.467.492-1.07.492-1.808v-.144zm9.304.144c0 1.066-.256 1.927-.766 2.58-.51.655-1.215.982-2.112.982-.456 0-.856-.077-1.2-.23-.344-.152-.637-.38-.878-.686v3.616h-1.347v-10.24h1.032l.212.957c.242-.355.542-.626.902-.813.36-.187.78-.28 1.257-.28.916 0 1.628.363 2.136 1.09.51.727.763 1.687.763 2.88v.145zm-1.347-.144c0-.838-.166-1.527-.497-2.067-.33-.54-.817-.81-1.46-.81-.387 0-.717.088-.99.264-.274.175-.495.416-.663.72v3.576c.168.305.39.544.663.714.273.17.608.257 1.005.257.638 0 1.12-.233 1.45-.7.327-.467.49-1.07.49-1.808v-.144zm2.685-.205c0-1.093.297-1.995.89-2.703.592-.71 1.396-1.063 2.412-1.063 1.026 0 1.836.353 2.43 1.06.595.706.892 1.608.892 2.706v.15c0 1.104-.297 2.006-.89 2.708-.592.703-1.398 1.054-2.42 1.054-1.02 0-1.828-.352-2.422-1.057-.595-.704-.893-1.605-.893-2.703v-.15zm1.347.15c0 .785.165 1.432.496 1.942.33.51.82.766 1.473.766.643 0 1.13-.254 1.464-.765.332-.51.5-1.157.5-1.94v-.152c0-.774-.17-1.42-.504-1.934-.335-.516-.826-.774-1.473-.774-.642 0-1.13.258-1.46.773-.33.514-.495 1.16-.495 1.933v.15zm10.425-2.59l-.69-.04c-.356 0-.656.083-.9.252-.243.17-.43.405-.563.71V167h-1.347v-7.396h1.203l.13 1.08c.21-.383.468-.682.776-.896.307-.214.662-.32 1.063-.32.1 0 .195.007.286.023.09.017.166.034.226.052l-.185 1.25zm3.192-2.974v1.784h1.4v.998h-1.4v4.49c0 .347.07.59.215.732.143.14.333.212.57.212.078 0 .163-.01.257-.027.093-.02.176-.042.25-.07l.177.923c-.1.082-.248.15-.442.202-.194.052-.388.08-.584.08-.547 0-.982-.167-1.306-.497-.324-.33-.485-.85-.485-1.555v-4.49h-1.176v-1h1.176v-1.784h1.346zm10.84 7.218c0-.296-.112-.54-.337-.73-.226-.193-.653-.36-1.282-.5-.897-.196-1.572-.462-2.026-.797-.453-.334-.68-.79-.68-1.37 0-.6.255-1.114.766-1.537.51-.424 1.175-.636 1.996-.636.86 0 1.546.22 2.054.663.508.442.75.98.728 1.613l-.014.04h-1.285c0-.322-.136-.613-.408-.87-.27-.258-.63-.387-1.076-.387-.48 0-.834.105-1.067.315-.233.21-.35.463-.35.76 0 .29.103.52.308.69.205.17.622.32 1.25.45.936.202 1.63.474 2.086.818.456.344.684.806.684 1.384 0 .657-.266 1.188-.797 1.593-.53.406-1.223.61-2.08.61-.943 0-1.686-.24-2.23-.72-.54-.478-.798-1.036-.77-1.674l.013-.04h1.285c.023.478.2.828.533 1.05.334.22.723.33 1.17.33.478 0 .853-.096 1.124-.29.272-.193.407-.447.407-.762zm4.8-7.22v1.786h1.4v.998h-1.4v4.49c0 .347.072.59.215.732.144.14.334.212.57.212.08 0 .164-.01.257-.027.094-.02.177-.042.25-.07l.178.923c-.1.082-.248.15-.44.202-.195.052-.39.08-.586.08-.547 0-.982-.167-1.305-.497-.325-.33-.487-.85-.487-1.555v-4.49h-1.176v-1h1.176v-1.784h1.347zm7.608 9.182c-.045-.223-.08-.42-.106-.59-.025-.172-.04-.344-.044-.517-.25.355-.578.652-.98.892-.404.24-.838.36-1.303.36-.77 0-1.357-.2-1.76-.593-.404-.394-.605-.937-.605-1.63 0-.707.285-1.26.857-1.658.572-.4 1.348-.598 2.328-.598h1.463v-.73c0-.434-.132-.777-.397-1.03-.263-.253-.637-.38-1.12-.38-.433 0-.785.11-1.056.332-.27.22-.407.486-.407.796h-1.285l-.013-.04c-.03-.538.225-1.03.76-1.477.536-.447 1.228-.67 2.076-.67.838 0 1.513.213 2.023.64.51.425.765 1.04.765 1.84v3.563c0 .264.013.52.04.765.028.246.078.488.15.725h-1.387zm-2.235-.984c.488 0 .927-.126 1.32-.376.39-.25.646-.538.765-.862v-1.203h-1.51c-.543 0-.977.137-1.303.41-.326.274-.49.595-.49.964 0 .327.104.587.31.78.204.19.507.286.908.286zm5.947.984v-6.398h-1.155v-.998h1.155v-.937c0-.788.206-1.398.62-1.83.41-.43.987-.645 1.725-.645.155 0 .31.013.468.038.157.025.332.06.523.106l-.164 1.025c-.082-.017-.18-.033-.297-.047-.116-.013-.238-.02-.366-.02-.393 0-.685.117-.876.352-.19.235-.287.575-.287 1.022v.937h1.538v.998h-1.538V167h-1.347zm4.833 0v-6.398h-1.155v-.998h1.155v-.937c0-.788.206-1.398.62-1.83.41-.43.987-.645 1.725-.645.155 0 .31.013.468.038.157.025.332.06.523.106l-.165 1.025c-.082-.017-.18-.033-.297-.047-.116-.013-.238-.02-.366-.02-.392 0-.684.117-.875.352-.19.235-.287.575-.287 1.022v.937h1.538v.998h-1.538V167h-1.347zM399.577 7.4v4.313h-1.347V1.766h3.603c1.09 0 1.92.242 2.495.725.574.484.86 1.186.86 2.106 0 .51-.132.955-.398 1.333-.267.378-.656.678-1.166.902.547.178.94.466 1.18.865.238.398.358.892.358 1.48v.936c0 .31.034.588.103.834.068.246.186.447.355.602v.163h-1.388c-.177-.155-.29-.383-.34-.684-.052-.302-.077-.612-.077-.93v-.91c0-.538-.157-.97-.47-1.3-.316-.327-.737-.49-1.266-.49h-2.503zm0-1.06h2.12c.76 0 1.308-.145 1.643-.434.335-.29.503-.73.503-1.323 0-.56-.163-.995-.49-1.302-.325-.307-.832-.46-1.52-.46h-2.256v3.52zm10.746 5.516c-1.03 0-1.85-.343-2.457-1.03-.61-.684-.913-1.574-.913-2.668v-.3c0-1.054.313-1.93.94-2.63s1.368-1.05 2.225-1.05c.998 0 1.752.302 2.263.904.51.6.766 1.403.766 2.406v.84h-4.798l-.02.035c.013.71.193 1.295.54 1.753.346.458.83.687 1.455.687.456 0 .856-.064 1.2-.194s.64-.31.892-.538l.526.875c-.263.26-.612.476-1.044.65-.433.173-.958.26-1.573.26zm-.205-6.617c-.45 0-.836.19-1.155.57-.32.38-.515.858-.588 1.432l.014.034h3.41v-.178c0-.528-.14-.97-.424-1.326-.283-.355-.702-.533-1.258-.533zm4.245 2.91c0-1.188.26-2.148.78-2.877.52-.73 1.237-1.094 2.153-1.094.47 0 .882.094 1.237.283.356.19.652.462.89.817l.163-.964h1.073v7.438c0 .948-.277 1.676-.828 2.184-.55.508-1.347.762-2.386.762-.355 0-.74-.05-1.152-.147-.412-.098-.775-.23-1.09-.4l.342-1.046c.24.137.533.247.875.332.343.083.68.125 1.013.125.656 0 1.133-.15 1.432-.448.298-.298.447-.753.447-1.363v-.834c-.24.31-.53.543-.868.7-.337.158-.724.236-1.162.236-.907 0-1.62-.328-2.14-.984-.52-.656-.78-1.515-.78-2.577V8.15zm1.347.145c0 .743.157 1.34.472 1.79.314.452.793.677 1.435.677.406 0 .745-.092 1.02-.276.272-.185.498-.446.675-.783V6.3c-.173-.316-.398-.565-.676-.75-.278-.185-.613-.277-1.005-.277-.642 0-1.123.27-1.442.807-.32.538-.478 1.228-.478 2.07v.145zm8.36 3.418h-1.346V4.316h1.346v7.397zm0-9.29h-1.346V1.05h1.346v1.373zm1.757 5.523c0-1.094.296-1.995.89-2.704.59-.708 1.396-1.063 2.412-1.063 1.024 0 1.834.353 2.43 1.06.594.705.89 1.608.89 2.706v.15c0 1.103-.295 2.006-.887 2.707-.593.702-1.4 1.053-2.42 1.053s-1.83-.352-2.424-1.056c-.595-.704-.893-1.605-.893-2.704v-.15zm1.347.15c0 .784.165 1.43.495 1.942.33.51.82.765 1.473.765.642 0 1.13-.255 1.462-.765.333-.51.5-1.158.5-1.942v-.15c0-.775-.168-1.42-.503-1.935-.335-.514-.826-.77-1.473-.77-.644 0-1.13.256-1.46.77-.33.516-.496 1.16-.496 1.936v.15zm8.128-3.78l.095 1.1c.247-.39.555-.695.927-.912.37-.216.794-.325 1.268-.325.797 0 1.415.233 1.852.7.438.467.657 1.188.657 2.164v4.67h-1.346V7.07c0-.65-.13-1.113-.386-1.387-.258-.273-.65-.41-1.18-.41-.387 0-.73.094-1.028.28-.3.187-.537.443-.715.766v5.393H434.1V4.316h1.202zm11.3 7.397c-.046-.224-.08-.42-.106-.592-.025-.17-.04-.342-.045-.515-.25.356-.576.653-.98.892-.403.24-.837.36-1.302.36-.77 0-1.357-.198-1.76-.592-.404-.394-.605-.938-.605-1.63 0-.707.286-1.26.858-1.658.573-.4 1.348-.598 2.328-.598h1.463v-.733c0-.433-.13-.776-.395-1.03-.265-.252-.638-.378-1.12-.378-.434 0-.786.11-1.058.33-.27.222-.406.487-.406.797h-1.284l-.014-.04c-.027-.54.227-1.03.762-1.478.536-.447 1.227-.67 2.075-.67.837 0 1.512.212 2.022.64.51.425.766 1.04.766 1.84v3.562c0 .265.014.52.04.766.028.246.078.488.15.725h-1.386zm-2.236-.985c.488 0 .928-.125 1.32-.376.39-.25.647-.537.765-.86V8.287h-1.51c-.542 0-.976.137-1.302.41-.326.273-.49.595-.49.964 0 .328.104.588.31.78.204.19.507.286.908.286zm6.843.985h-1.348V1.05h1.347v10.663zm9.85-1.962c0-.295-.113-.54-.34-.73-.224-.192-.652-.358-1.28-.5-.898-.196-1.574-.46-2.027-.796-.454-.335-.68-.792-.68-1.37 0-.602.255-1.115.765-1.54.51-.423 1.176-.635 1.996-.635.86 0 1.546.22 2.054.663.508.442.75.98.728 1.613l-.013.04h-1.285c0-.323-.136-.613-.407-.87-.27-.258-.63-.387-1.076-.387-.478 0-.834.104-1.066.313-.233.21-.35.463-.35.76 0 .29.104.52.31.69.204.168.62.32 1.25.45.934.2 1.63.474 2.085.818.455.345.683.806.683 1.385 0 .656-.265 1.187-.796 1.593-.53.405-1.225.608-2.082.608-.943 0-1.686-.24-2.228-.718-.543-.478-.8-1.036-.773-1.674l.014-.04h1.286c.023.477.2.827.533 1.048.332.22.722.33 1.168.33.48 0 .854-.095 1.125-.29.27-.193.407-.447.407-.76zm7.567 1.963c-.046-.224-.08-.42-.106-.592-.024-.17-.04-.342-.043-.515-.25.356-.578.653-.98.892-.405.24-.84.36-1.304.36-.77 0-1.357-.198-1.76-.592-.403-.394-.605-.938-.605-1.63 0-.707.286-1.26.858-1.658.572-.4 1.348-.598 2.328-.598h1.463v-.733c0-.433-.133-.776-.397-1.03-.264-.252-.638-.378-1.12-.378-.434 0-.786.11-1.057.33-.27.222-.407.487-.407.797h-1.285l-.013-.04c-.027-.54.227-1.03.762-1.478.535-.447 1.227-.67 2.074-.67.84 0 1.513.212 2.024.64.51.425.765 1.04.765 1.84v3.562c0 .265.014.52.04.766.03.246.08.488.152.725h-1.388zm-2.235-.985c.487 0 .927-.125 1.32-.376.39-.25.646-.537.765-.86V8.287h-1.51c-.543 0-.978.137-1.303.41-.326.273-.49.595-.49.964 0 .328.103.588.308.78.206.19.51.286.91.286zm7.164-8.196v1.784h1.4v.998h-1.4v4.49c0 .348.07.592.215.733.145.14.335.212.572.212.077 0 .163-.01.256-.03.094-.017.177-.04.25-.067l.177.923c-.1.082-.247.15-.44.202-.194.052-.39.078-.585.078-.547 0-.982-.165-1.306-.495-.323-.33-.485-.848-.485-1.555v-4.49h-1.177v-1h1.176V2.533h1.346zm6.132 9.324c-1.03 0-1.85-.343-2.458-1.03-.608-.684-.913-1.574-.913-2.668v-.3c0-1.054.314-1.93.94-2.63.627-.7 1.37-1.05 2.225-1.05.998 0 1.753.302 2.263.904.51.6.766 1.403.766 2.406v.84h-4.798l-.02.035c.013.71.193 1.295.54 1.753.346.458.83.687 1.455.687.456 0 .856-.064 1.2-.194s.642-.31.892-.538l.526.875c-.265.26-.613.476-1.046.65-.433.173-.957.26-1.572.26zm-.206-6.617c-.45 0-.836.19-1.155.57-.32.38-.515.858-.588 1.432l.013.034h3.41v-.178c0-.528-.14-.97-.423-1.326-.282-.355-.702-.533-1.258-.533zm5.996 6.473h-1.347V1.05h1.348v10.663zm3.527 0h-1.347V1.05h1.347v10.663zm3.527 0h-1.346V4.316h1.346v7.397zm0-9.29h-1.346V1.05h1.346v1.373zm3.85.11v1.783h1.4v.998h-1.4v4.49c0 .348.07.592.214.733.144.14.334.212.57.212.078 0 .164-.01.257-.03.094-.017.177-.04.25-.067l.178.923c-.1.082-.247.15-.44.202-.194.052-.39.078-.585.078-.547 0-.982-.165-1.305-.495-.324-.33-.486-.848-.486-1.555v-4.49h-1.176v-1h1.176V2.533h1.347zm6.13 9.323c-1.03 0-1.848-.343-2.457-1.03-.608-.684-.912-1.574-.912-2.668v-.3c0-1.054.313-1.93.94-2.63.626-.7 1.368-1.05 2.225-1.05.998 0 1.752.302 2.262.904.51.6.766 1.403.766 2.406v.84h-4.8l-.02.035c.014.71.194 1.295.54 1.753.347.458.832.687 1.457.687.455 0 .855-.064 1.2-.194.343-.13.64-.31.89-.538l.528.875c-.263.26-.612.476-1.045.65-.433.173-.957.26-1.572.26zm-.204-6.617c-.452 0-.837.19-1.156.57-.32.38-.515.858-.588 1.432l.014.034h3.41v-.178c0-.528-.14-.97-.423-1.326-.282-.355-.7-.533-1.257-.533zm7.704 2.706c0-1.094.296-1.995.888-2.704.593-.708 1.397-1.063 2.413-1.063 1.026 0 1.836.353 2.43 1.06.595.705.893 1.608.893 2.706v.15c0 1.103-.296 2.006-.89 2.707-.59.702-1.398 1.053-2.42 1.053-1.02 0-1.827-.352-2.422-1.056-.595-.704-.892-1.605-.892-2.704v-.15zm1.346.15c0 .784.166 1.43.496 1.942.33.51.82.765 1.473.765.643 0 1.13-.255 1.463-.765.333-.51.5-1.158.5-1.942v-.15c0-.775-.168-1.42-.503-1.935-.335-.514-.826-.77-1.474-.77-.642 0-1.13.256-1.46.77-.33.516-.495 1.16-.495 1.936v.15zm7.486 3.617v-6.4h-1.156v-.997h1.156V3.38c0-.79.206-1.398.618-1.83.413-.43.988-.645 1.726-.645.155 0 .312.013.47.038.156.025.33.06.522.106l-.164 1.024c-.082-.018-.182-.034-.298-.048-.116-.014-.238-.02-.365-.02-.392 0-.684.117-.875.352-.192.234-.288.575-.288 1.022v.936h1.54v.998h-1.54v6.4h-1.346zm4.833 0v-6.4h-1.156v-.997h1.157V3.38c0-.79.206-1.398.618-1.83.413-.43.988-.645 1.726-.645.156 0 .313.013.47.038.157.025.33.06.523.106l-.164 1.024c-.083-.018-.183-.034-.3-.048-.115-.014-.237-.02-.364-.02-.392 0-.684.117-.875.352-.19.234-.287.575-.287 1.022v.936h1.54v.998h-1.54v6.4h-1.346zm5.728 0h-1.346V4.316h1.345v7.397zm0-9.29h-1.346V1.05h1.345v1.373zm5.08 8.38c.446 0 .84-.137 1.18-.413.338-.276.508-.614.508-1.015h1.21l.013.04c.023.64-.26 1.205-.85 1.7-.59.494-1.278.74-2.062.74-1.075 0-1.898-.35-2.467-1.052-.57-.7-.855-1.583-.855-2.645V7.87c0-1.052.286-1.93.858-2.634.572-.705 1.393-1.057 2.464-1.057.866 0 1.574.255 2.123.765.55.51.815 1.137.796 1.88l-.013.04h-1.217c0-.45-.16-.834-.48-1.15-.318-.318-.72-.476-1.21-.476-.705 0-1.21.253-1.513.76-.303.51-.454 1.133-.454 1.87v.288c0 .756.15 1.387.45 1.89.302.504.807.755 1.518.755zm7.492 1.053c-1.03 0-1.85-.343-2.458-1.03-.61-.684-.914-1.574-.914-2.668v-.3c0-1.054.314-1.93.94-2.63.627-.7 1.37-1.05 2.225-1.05 1 0 1.754.302 2.264.904.51.6.766 1.403.766 2.406v.84H540l-.02.035c.014.71.194 1.295.54 1.753.347.458.832.687 1.457.687.455 0 .855-.064 1.2-.194.343-.13.64-.31.89-.538l.528.875c-.265.26-.613.476-1.046.65-.434.173-.958.26-1.573.26zm-.206-6.617c-.45 0-.835.19-1.154.57-.32.38-.515.858-.588 1.432l.014.034h3.41v-.178c0-.528-.14-.97-.423-1.326-.283-.355-.703-.533-1.26-.533zm8.84 4.51c0-.295-.112-.54-.338-.73-.226-.192-.653-.358-1.282-.5-.898-.196-1.573-.46-2.027-.796-.453-.335-.68-.792-.68-1.37 0-.602.255-1.115.766-1.54.51-.423 1.175-.635 1.995-.635.86 0 1.546.22 2.054.663.507.442.75.98.727 1.613l-.014.04h-1.285c0-.323-.135-.613-.406-.87-.272-.258-.63-.387-1.077-.387-.48 0-.834.104-1.066.313-.234.21-.35.463-.35.76 0 .29.102.52.308.69.205.168.622.32 1.25.45.935.2 1.63.474 2.085.818.456.345.684.806.684 1.385 0 .656-.265 1.187-.796 1.593-.53.405-1.224.608-2.08.608-.944 0-1.687-.24-2.23-.718-.542-.478-.8-1.036-.772-1.674l.014-.04h1.285c.023.477.2.827.533 1.048.333.22.722.33 1.17.33.478 0 .852-.095 1.124-.29.27-.193.406-.447.406-.76zM34.54 174.967c0 1.217-.376 2.226-1.13 3.028-.755.802-1.733 1.203-2.936 1.203-1.162 0-2.107-.4-2.834-1.203-.727-.802-1.09-1.81-1.09-3.028v-1.77c0-1.213.363-2.222 1.09-3.03.727-.806 1.672-1.21 2.834-1.21 1.203 0 2.18.403 2.936 1.208.754.804 1.13 1.815 1.13 3.03v1.772zm-1.346-1.784c0-.912-.246-1.66-.738-2.242-.492-.583-1.153-.874-1.982-.874-.784 0-1.41.29-1.877.875-.467.584-.7 1.33-.7 2.243v1.784c0 .92.233 1.672.7 2.256.467.583 1.093.875 1.877.875.834 0 1.496-.29 1.985-.872.49-.58.734-1.334.734-2.26v-1.783zm4.307-1.525l.097 1.1c.246-.39.555-.695.926-.912.37-.216.794-.324 1.268-.324.8 0 1.416.233 1.854.7.437.467.656 1.19.656 2.164v4.67h-1.347v-4.643c0-.652-.13-1.114-.386-1.388-.258-.273-.65-.41-1.18-.41-.387 0-.73.094-1.028.28-.3.187-.538.443-.715.766v5.395h-1.347v-7.397H37.5zm8.21 7.397h-1.346V168.39h1.347v10.665zm3.528 0h-1.346v-7.397h1.346v7.397zm0-9.29h-1.346v-1.374h1.346v1.375zm3.275 1.893l.095 1.1c.246-.39.555-.695.927-.912.37-.216.794-.324 1.268-.324.797 0 1.415.233 1.852.7.438.467.657 1.19.657 2.164v4.67h-1.347v-4.643c0-.652-.13-1.114-.386-1.388-.26-.273-.652-.41-1.18-.41-.388 0-.73.094-1.03.28-.298.187-.536.443-.714.766v5.395H51.31v-7.397h1.203zm9.823 7.54c-1.03 0-1.85-.343-2.458-1.028-.608-.686-.912-1.576-.912-2.67v-.3c0-1.053.313-1.93.94-2.63.626-.7 1.368-1.048 2.225-1.048 1 0 1.753.3 2.264.902.51.6.765 1.404.765 2.406v.84h-4.8l-.02.035c.014.71.194 1.296.54 1.754.346.457.832.686 1.456.686.456 0 .856-.065 1.2-.195s.64-.308.892-.536l.526.875c-.264.26-.613.475-1.046.65-.433.172-.957.258-1.572.258zm-.205-6.617c-.45 0-.835.19-1.154.572-.32.38-.515.858-.588 1.432l.013.034h3.413v-.177c0-.528-.142-.97-.424-1.326-.284-.355-.703-.533-1.26-.533zm12.565 6.475c-.045-.224-.08-.42-.106-.592-.026-.17-.04-.342-.045-.516-.25.356-.578.653-.98.892-.404.24-.838.358-1.303.358-.77 0-1.357-.197-1.76-.59-.404-.395-.606-.94-.606-1.63 0-.708.286-1.26.858-1.66.572-.398 1.348-.597 2.328-.597h1.463v-.73c0-.434-.132-.777-.397-1.03-.264-.252-.638-.38-1.12-.38-.434 0-.786.112-1.057.333-.27.22-.406.486-.406.796H70.28l-.014-.042c-.028-.538.226-1.03.762-1.477.535-.445 1.227-.668 2.075-.668.838 0 1.513.213 2.023.64.51.425.766 1.04.766 1.84v3.563c0 .264.013.52.04.765.028.246.078.488.15.725h-1.387zm-2.235-.985c.488 0 .927-.125 1.32-.376.39-.25.646-.537.765-.86v-1.204h-1.51c-.543 0-.977.137-1.303.41-.326.274-.49.595-.49.964 0 .328.104.588.31.78.204.19.507.286.908.286zm6.59-6.412l.096 1.1c.246-.39.554-.695.926-.912.37-.216.794-.324 1.268-.324.797 0 1.415.233 1.852.7.438.467.657 1.19.657 2.164v4.67H82.5v-4.643c0-.652-.13-1.114-.386-1.388-.258-.273-.65-.41-1.18-.41-.387 0-.73.094-1.028.28-.3.187-.537.443-.715.766v5.395h-1.346v-7.397h1.203zm6.446 3.835c0-1.19.254-2.15.762-2.878.508-.73 1.22-1.093 2.137-1.093.432 0 .816.08 1.15.24.336.158.622.39.86.696v-4.067h1.346v10.665h-1.1l-.157-.91c-.24.347-.538.61-.89.787-.35.177-.757.266-1.222.266-.9 0-1.608-.327-2.118-.98-.51-.655-.766-1.515-.766-2.58v-.145zm1.347.144c0 .747.152 1.345.458 1.794.306.45.78.675 1.423.675.4 0 .738-.092 1.01-.274.275-.18.498-.436.67-.764v-3.453c-.172-.305-.396-.548-.672-.728-.275-.18-.606-.27-.994-.27-.647 0-1.124.267-1.432.8-.307.533-.46 1.226-.46 2.078v.144zm10.083-.35c0-1.093.296-1.994.888-2.702.593-.71 1.397-1.063 2.414-1.063 1.025 0 1.835.353 2.43 1.06.594.706.892 1.608.892 2.706v.15c0 1.103-.296 2.006-.89 2.708-.59.7-1.398 1.052-2.42 1.052-1.02 0-1.827-.352-2.422-1.056-.595-.704-.892-1.605-.892-2.703v-.152zm1.346.152c0 .782.166 1.43.496 1.94.33.51.822.766 1.473.766.644 0 1.13-.256 1.464-.766.333-.51.5-1.158.5-1.94v-.152c0-.775-.168-1.42-.503-1.934-.334-.515-.825-.773-1.472-.773-.643 0-1.13.26-1.46.774-.33.515-.496 1.16-.496 1.934v.15zm7.486 3.615v-6.4h-1.155v-.997h1.155v-.936c0-.79.206-1.398.618-1.83.413-.43.988-.645 1.727-.645.154 0 .31.013.468.038.158.025.332.06.524.106l-.164 1.026c-.082-.018-.18-.034-.298-.048-.116-.013-.238-.02-.365-.02-.392 0-.684.117-.875.352-.192.235-.288.575-.288 1.022v.936h1.54v.998h-1.54v6.4h-1.346zm4.833 0v-6.4h-1.154v-.997h1.155v-.936c0-.79.207-1.398.62-1.83.412-.43.987-.645 1.726-.645.154 0 .31.013.468.038.157.025.33.06.523.106l-.164 1.026c-.082-.018-.18-.034-.298-.048-.116-.013-.238-.02-.365-.02-.392 0-.684.117-.875.352-.192.235-.287.575-.287 1.022v.936h1.538v.998h-1.538v6.4h-1.347zm5.73 0h-1.347V168.39h1.346v10.665zm3.527 0H118.5v-7.397h1.347v7.397zm0-9.29H118.5v-1.374h1.347v1.375zm3.274 1.893l.097 1.1c.246-.39.555-.695.926-.912.37-.216.794-.324 1.268-.324.8 0 1.416.233 1.854.7.437.467.656 1.19.656 2.164v4.67h-1.347v-4.643c0-.652-.128-1.114-.386-1.388-.257-.273-.65-.41-1.18-.41-.387 0-.73.094-1.028.28-.3.187-.538.443-.715.766v5.395h-1.347v-7.397h1.203zm9.824 7.54c-1.03 0-1.85-.343-2.457-1.028-.61-.686-.913-1.576-.913-2.67v-.3c0-1.053.314-1.93.94-2.63.627-.7 1.368-1.048 2.225-1.048.997 0 1.752.3 2.262.902.51.6.766 1.404.766 2.406v.84h-4.8l-.02.035c.014.71.194 1.296.54 1.754.347.457.832.686 1.456.686.456 0 .856-.065 1.2-.195s.64-.308.892-.536l.526.875c-.264.26-.612.475-1.045.65-.433.172-.957.258-1.573.258zm-.205-6.617c-.452 0-.837.19-1.156.572-.32.38-.515.858-.588 1.432l.014.034h3.41v-.177c0-.528-.14-.97-.423-1.326-.282-.355-.702-.533-1.258-.533zM1.626 189.658l.096.97c.24-.35.548-.622.92-.816.37-.194.802-.29 1.295-.29.492 0 .914.114 1.268.34.353.23.618.57.796 1.027.233-.42.54-.753.924-1 .383-.245.83-.368 1.34-.368.752 0 1.346.258 1.784.775.437.518.656 1.296.656 2.335v4.423H9.357v-4.437c0-.73-.125-1.245-.376-1.548-.25-.303-.623-.455-1.12-.455-.46 0-.832.16-1.117.48-.285.318-.453.72-.503 1.21v4.75H4.887v-4.437c0-.692-.13-1.2-.387-1.52-.257-.322-.627-.483-1.11-.483-.41 0-.748.085-1.012.253-.264.17-.467.406-.608.71v5.477H.423v-7.397h1.203zm15.58 7.397c-.046-.224-.082-.42-.107-.592-.026-.17-.04-.342-.045-.516-.25.356-.578.653-.98.892-.405.24-.84.358-1.304.358-.77 0-1.355-.197-1.76-.59-.402-.395-.604-.94-.604-1.63 0-.708.286-1.26.858-1.66.572-.398 1.348-.597 2.328-.597h1.463v-.73c0-.434-.132-.777-.397-1.03-.264-.252-.638-.38-1.12-.38-.434 0-.786.112-1.057.333-.27.22-.406.486-.406.796H12.79l-.015-.042c-.027-.538.227-1.03.763-1.477.535-.445 1.227-.668 2.074-.668.84 0 1.513.213 2.024.64.51.425.765 1.04.765 1.84v3.563c0 .264.015.52.042.765.028.246.078.488.15.725h-1.387zm-2.236-.985c.487 0 .927-.125 1.32-.376.39-.25.646-.537.765-.86v-1.204h-1.51c-.543 0-.977.137-1.303.41-.326.274-.49.595-.49.964 0 .328.103.588.31.78.204.19.507.286.908.286zm8.886-5.222l-.69-.04c-.355 0-.655.083-.9.252-.243.168-.43.405-.563.71v5.285h-1.347v-7.397h1.204l.13 1.08c.21-.382.468-.68.775-.895.308-.214.662-.32 1.063-.32.1 0 .196.007.287.023.092.015.167.033.226.05l-.184 1.252zm3.528 2.796h-.875v3.41H25.16v-10.663h1.347v6.18h.86l2.024-2.912h1.613l-2.53 3.364 2.892 4.033h-1.587l-2.4-3.41zm7.882 3.554c-1.03 0-1.85-.343-2.458-1.028-.608-.686-.912-1.576-.912-2.67v-.3c0-1.053.313-1.93.94-2.63.626-.7 1.368-1.048 2.225-1.048 1 0 1.753.3 2.263.902.51.6.766 1.404.766 2.406v.84h-4.8l-.02.035c.013.71.193 1.296.54 1.754.346.457.83.686 1.456.686.455 0 .855-.065 1.2-.195.343-.13.64-.308.89-.536l.528.875c-.265.26-.613.475-1.046.65-.433.172-.957.258-1.572.258zm-.205-6.617c-.45 0-.836.19-1.155.572-.32.38-.515.858-.588 1.432l.014.034h3.412v-.177c0-.528-.14-.97-.424-1.326-.282-.355-.7-.533-1.257-.533zm6.317-2.706v1.784h1.4v.998h-1.4v4.492c0 .346.072.59.215.73.144.142.334.213.57.213.08 0 .164-.008.257-.026.093-.02.176-.04.25-.07l.177.924c-.1.082-.248.15-.44.202-.195.052-.39.078-.586.078-.546 0-.98-.165-1.304-.495-.324-.33-.486-.85-.486-1.555v-4.492h-1.176v-.998h1.176v-1.784h1.347zm4.52 9.18h-1.348v-7.396h1.346v7.397zm0-9.29h-1.348v-1.373h1.346v1.375zm3.273 1.894l.096 1.1c.246-.39.554-.695.926-.912.37-.216.794-.324 1.268-.324.797 0 1.415.233 1.852.7.438.467.657 1.19.657 2.164v4.67H52.62v-4.643c0-.652-.13-1.114-.386-1.388-.258-.273-.65-.41-1.18-.41-.387 0-.73.094-1.028.28-.3.187-.537.443-.715.766v5.395h-1.346v-7.397h1.203zm6.46 3.835c0-1.19.26-2.15.78-2.878.52-.73 1.236-1.093 2.153-1.093.47 0 .88.094 1.237.283.355.19.65.462.888.817l.165-.964h1.073v7.438c0 .948-.276 1.676-.827 2.184-.553.508-1.348.762-2.387.762-.356 0-.74-.05-1.152-.147-.41-.098-.775-.23-1.09-.4l.343-1.046c.24.136.533.247.874.33.342.085.68.127 1.012.127.655 0 1.133-.15 1.43-.447.3-.3.45-.754.45-1.364v-.834c-.242.31-.532.543-.87.7-.336.158-.724.236-1.16.236-.908 0-1.62-.328-2.14-.984-.52-.656-.78-1.515-.78-2.577v-.144zm1.347.144c0 .743.157 1.34.47 1.79.316.452.794.678 1.437.678.405 0 .745-.093 1.018-.277.274-.185.5-.446.677-.783v-3.404c-.174-.314-.4-.563-.678-.748-.278-.184-.613-.277-1.005-.277-.642 0-1.123.27-1.442.807-.32.538-.478 1.228-.478 2.07v.145zm13.39 2.51c.448 0 .84-.14 1.18-.415.34-.276.51-.614.51-1.015h1.21l.013.04c.023.64-.26 1.205-.85 1.7-.59.494-1.278.74-2.062.74-1.075 0-1.898-.35-2.468-1.05-.57-.703-.854-1.585-.854-2.647v-.287c0-1.053.286-1.93.858-2.635.572-.704 1.393-1.056 2.464-1.056.866 0 1.574.255 2.123.765.55.51.815 1.137.797 1.88l-.014.04h-1.216c0-.45-.16-.834-.48-1.15-.318-.317-.72-.476-1.21-.476-.705 0-1.21.255-1.513.763-.303.508-.455 1.132-.455 1.87v.287c0 .757.15 1.387.45 1.89.3.504.807.756 1.518.756zm8.97.908c-.046-.224-.08-.42-.106-.592-.024-.17-.04-.342-.043-.516-.25.356-.578.653-.98.892-.405.24-.84.358-1.304.358-.77 0-1.357-.197-1.76-.59-.403-.395-.605-.94-.605-1.63 0-.708.286-1.26.858-1.66.572-.398 1.348-.597 2.328-.597h1.463v-.73c0-.434-.133-.777-.397-1.03-.264-.252-.638-.38-1.12-.38-.434 0-.786.112-1.057.333-.27.22-.407.486-.407.796H74.92l-.013-.042c-.027-.538.227-1.03.762-1.477.535-.445 1.226-.668 2.074-.668.84 0 1.513.213 2.024.64.51.425.765 1.04.765 1.84v3.563c0 .264.014.52.04.765.03.246.08.488.152.725h-1.388zm-2.235-.985c.487 0 .927-.125 1.32-.376.39-.25.646-.537.765-.86v-1.204h-1.51c-.544 0-.978.137-1.303.41-.326.274-.49.595-.49.964 0 .328.103.588.308.78.205.19.51.286.91.286zm6.59-6.412l.095.97c.242-.35.548-.622.92-.816.37-.194.803-.29 1.295-.29.492 0 .915.114 1.268.34.353.23.62.57.796 1.027.233-.42.54-.753.923-1 .382-.245.83-.368 1.34-.368.75 0 1.346.258 1.783.775.438.518.657 1.296.657 2.335v4.423h-1.347v-4.437c0-.73-.125-1.245-.376-1.548-.25-.303-.624-.455-1.12-.455-.462 0-.834.16-1.12.48-.284.318-.45.72-.5 1.21v4.75H86.95v-4.437c0-.692-.13-1.2-.386-1.52-.258-.322-.628-.483-1.11-.483-.41 0-.748.085-1.013.253-.264.17-.467.406-.608.71v5.477h-1.347v-7.397h1.203zm17.335 3.98c0 1.065-.255 1.925-.765 2.58-.51.653-1.215.98-2.113.98-.456 0-.856-.076-1.2-.23-.344-.15-.637-.38-.88-.686v3.617h-1.345v-10.242h1.032l.212.957c.24-.355.54-.626.9-.813.36-.187.78-.28 1.26-.28.915 0 1.627.363 2.135 1.09.508.727.762 1.687.762 2.88v.145zm-1.346-.145c0-.838-.165-1.528-.495-2.068-.33-.54-.817-.81-1.46-.81-.387 0-.717.088-.99.264-.274.174-.495.414-.664.72v3.575c.17.305.39.543.664.714.274.17.61.256 1.005.256.637 0 1.12-.234 1.448-.7.33-.468.493-1.07.493-1.81v-.143zm7.548 3.562c-.046-.224-.08-.42-.106-.592-.025-.17-.04-.342-.045-.516-.25.356-.577.653-.98.892-.404.24-.838.358-1.303.358-.77 0-1.357-.197-1.76-.59-.404-.395-.605-.94-.605-1.63 0-.708.285-1.26.857-1.66.572-.398 1.347-.597 2.327-.597h1.463v-.73c0-.434-.132-.777-.396-1.03-.264-.252-.637-.38-1.12-.38-.433 0-.785.112-1.057.333-.27.22-.406.486-.406.796h-1.285l-.014-.042c-.027-.538.227-1.03.762-1.477.536-.445 1.227-.668 2.075-.668.838 0 1.513.213 2.023.64.51.425.766 1.04.766 1.84v3.563c0 .264.013.52.04.765.028.246.078.488.15.725h-1.386zm-2.236-.985c.488 0 .928-.125 1.32-.376.39-.25.647-.537.765-.86v-1.204h-1.51c-.543 0-.977.137-1.303.41-.326.274-.49.595-.49.964 0 .328.104.588.31.78.204.19.507.286.908.286zm6.843.985h-1.347v-7.397h1.347v7.397zm0-9.29h-1.347v-1.374h1.347v1.375zm1.777 5.728c0-1.19.26-2.15.78-2.878.52-.73 1.237-1.093 2.153-1.093.47 0 .882.094 1.237.283.356.19.652.462.89.817l.163-.964h1.073v7.438c0 .948-.276 1.676-.827 2.184-.55.508-1.346.762-2.385.762-.355 0-.74-.05-1.152-.147-.412-.098-.775-.23-1.09-.4l.342-1.046c.24.136.533.247.875.33.342.085.68.127 1.012.127.656 0 1.133-.15 1.432-.447.298-.3.448-.754.448-1.364v-.834c-.242.31-.53.543-.87.7-.336.158-.723.236-1.16.236-.908 0-1.62-.328-2.14-.984-.52-.656-.78-1.515-.78-2.577v-.144zm1.347.144c0 .743.156 1.34.47 1.79.315.452.794.678 1.436.678.406 0 .745-.093 1.02-.277.272-.185.498-.446.676-.783v-3.404c-.174-.314-.4-.563-.677-.748-.278-.184-.613-.277-1.005-.277-.643 0-1.123.27-1.442.807-.32.538-.48 1.228-.48 2.07v.145zm8.106-3.98l.096 1.102c.246-.393.555-.697.926-.914.372-.216.794-.324 1.268-.324.798 0 1.415.233 1.853.7.436.467.655 1.19.655 2.164v4.67h-1.346v-4.643c0-.652-.13-1.114-.388-1.388-.257-.273-.65-.41-1.18-.41-.386 0-.73.094-1.028.28-.298.187-.536.443-.714.766v5.395h-1.347v-7.397h1.203zm11.054 5.436c0-.296-.113-.54-.338-.732-.226-.19-.653-.356-1.282-.498-.898-.196-1.573-.46-2.027-.796-.453-.335-.68-.792-.68-1.37 0-.602.255-1.115.766-1.54.51-.423 1.174-.634 1.995-.634.86 0 1.546.22 2.054.663.507.442.75.98.727 1.613l-.014.04h-1.285c0-.323-.135-.613-.407-.87-.27-.258-.63-.387-1.075-.387-.48 0-.834.106-1.067.316-.232.21-.348.462-.348.758 0 .292.102.522.307.69.205.17.622.32 1.25.452.935.2 1.63.473 2.086.817.456.344.684.805.684 1.384 0 .656-.266 1.187-.797 1.593-.53.406-1.224.608-2.08.608-.944 0-1.687-.24-2.23-.717-.542-.478-.8-1.036-.772-1.674l.014-.04h1.285c.023.477.2.827.533 1.048.333.22.722.332 1.17.332.477 0 .852-.097 1.123-.29.272-.195.407-.45.407-.763z" fill="#004385"/><path d="M394.91 232.105l-83.39-83.39L290.05 32.75c-22.684 4.175-44.38 15.033-61.922 32.576-46.057 46.056-46.053 120.736-.004 166.783 46.055 46.056 120.727 46.052 166.783-.005" fill="#004385" fill-rule="nonzero"/><path d="M160.68 173.04h53.64c.376 0 .68.302.68.677 0 .375-.304.68-.68.68H160.6c-.405 1.692-1.93 2.952-3.748 2.952-2.127 0-3.852-1.726-3.852-3.853 0-2.126 1.725-3.85 3.852-3.85 1.973 0 3.6 1.48 3.827 3.392z" fill="#013365" fill-rule="nonzero"/></g></svg>