<svg xmlns="http://www.w3.org/2000/svg" width="114" height="87" viewBox="0 0 114 87">
    <g fill="none" fill-rule="evenodd">
        <g fill-rule="nonzero">
            <path fill="#F2F2F2" d="M110.2118703 45H17.52359102c-2.21645885 0-4.34828927 1.8-4.34828927 4v34c0 2.2 2.13183042 4 4.34828927 4H57.8228429c2.2164588 0 4.0299252-1.8 4.0299252-4h4.0299252c0 2.2 1.8144738 4 4.0299252 4h40.2992518c2.2174664 0 3.7125687-1.8 3.7125687-4V49c0-2.2-1.4951023-4-3.7125687-4z"/>
            <path fill="#D2D2D2" d="M69.9126185 85c-1.1112519 0-2.3323192-.897-2.3323192-2v-2h-8.0598504v2c0 1.103-.5853467 2-1.6965985 2H17.5245985c-1.11125187 0-2.33332668-.897-2.33332668-2V49c0-1.103 1.2220748-2 2.33332668-2h92.6882793c1.1122594 0 1.697606.897 1.697606 2v34c0 1.103-.5853466 2-1.697606 2H69.9126185z"/>
            <path fill="#4699C7" d="M23.2511222 49h80.5985037v2H23.2511222z"/>
            <path fill="#F2F2F2" d="M19.221197 56h36.2693267v26H19.221197z"/>
            <path fill="#000" d="M22.562005 77h12.0897756c0-3.028-1.6643591-5.602-3.99063346-6.576C31.83889277 69.726 32.636818 68.461 32.636818 67c0-2.209-1.80439904-4-4.02992523-4-2.22552618 0-4.02992518 1.791-4.02992518 4 0 1.461.7979251 2.726 1.9756708 3.424-2.3252669.974-3.9906334 3.548-3.9906334 6.576z"/>
            <path fill="#4699C7" d="M38.3633417 69h6.04488778v2H38.3633417zm0 4H49.445636v2H38.3633417zm35.2568079-9h34.2543641v2H73.6201496z"/>
            <path fill="#92E8E9" d="M75.6401496 66v-6c0-1.1 1.2250973-2 2.3323192-2h26.1945137c1.109237 0 1.697606.9 1.697606 2v6H75.6401496z"/>
            <path fill="#4699C7" d="M73.6201496 74h34.2543641v2H73.6201496z"/>
            <path fill="#8D6FC8" d="M75.6401496 76v-6c0-1.1 1.2250973-2 2.3323192-2h26.1945137c1.109237 0 1.697606.9 1.697606 2v6H75.6401496z"/>
            <path fill="#FFF" d="M100.1370574 62c0-.504.1934364-.959.5037406-1.311-.3687381-.419-.9047182-.689-1.5112219-.689-1.1122594 0-2.0149626.896-2.0149626 2s.9027032 2 2.0149626 2c.6065037 0 1.1424838-.271 1.5112219-.689-.3082893-.352-.5037406-.807-.5037406-1.311zm1.0074813 0c0-.504-.192429-.959-.5037407-1.311.3697456-.42.9057257-.689 1.511222-.689 1.1122593 0 2.0149625.896 2.0149625 2s-.9027032 2-2.0149625 2c-.6054963 0-1.1414764-.271-1.511222-.689.3113117-.352.5037407-.807.5037407-1.311z"/>
            <path fill="#000" d="M75.6351122 71h30.2244389v2H75.6351122z"/>
        </g>
        <path fill="#F2F2F2" d="M21.06379533 23.67615364s1.13421312-8.58627984 7.56181684-8.90213746c6.4283747-.31536726 5.43009454 5.07807358.62025912 4.02168085 0 0 4.1149359 3.19679452 2.0035634 4.48386217-2.1115467 1.2864174-4.5849881-.377193-4.5849881-.377193s4.9311705 4.1733276 1.7627702 5.22998434c-3.1684004 1.05665676-7.3634216-4.4561969-7.3634216-4.4561969m-8.8623895 5.77164526s-7.7615806-2.88176668-10.9795548 2.98865753c-3.2173775 5.87026417 1.7886107 7.4128283 3.1065948 2.42715252 0 0 .8060628 5.31906908 2.8609857 3.9335268 2.0543261-1.3853824 1.7873723-4.46329893 1.7873723-4.46329893s1.254802 6.53067137 3.6005689 4.05106736c2.3463636-2.479764-.3759669-8.93710528-.3759669-8.93710528"/>
        <path fill="#98B3CD" d="M27.05043372 27.44983975c2.06121066 4.59874237.33955906 9.9685665-3.8455681 11.99319487-4.18554967 2.0254386-9.24968613-.06118293-11.31107103-4.66057556-2.0612108-4.59874235-.3395592-9.9685665 3.845568-11.9931949 4.1849529-2.02527867 9.2490893.0613429 11.3110711 4.6605756"/>
        <path fill="#F2F2F2" d="M25.78934642 27.87766764c1.76370226 3.93483046.2907946 8.52852465-3.29013074 10.26093094-3.5807512 1.73305657-7.91371554-.0525677-9.67741773-3.9873983-1.76370226-3.93483045-.2907946-8.52852465 3.2899565-10.2615812 3.58092543-1.7324063 7.9138898.05321802 9.67759197 3.98804856"/>
        <path fill="#98B3CD" d="M18.5088519 36.75496226l-.58127427-1.05691382 3.79999986-2.3089294c.4681498-.2843414.8389072-.7077601 1.0170531-1.16250377.0904648-.2305326.209153-.67561708-.0079416-1.0704541-.2170947-.394837-.6436613-.5091333-.8787978-.54160867-.4637823-.06459917-.9985173.0619562-1.4660703.34613768l-1.6448649.99898472c-.6773355.41078292-1.4383351.5833301-2.1439188.48525363-.7600967-.1057716-1.3942371-.52685453-1.7400562-1.15621656l-.1246689-.22655168c-.6891248-1.2517313-.0678876-2.9890815 1.3843017-3.871624l3.8007709-2.3084391.5818711 1.0567539-3.80077095 2.308439c-.9091473.5530441-1.37147466 1.5752728-1.0089373 2.2336081l.12466896.2265515c.2170947.3948371.643487.50848313.87862355.5409585.46437915.06443914.9985173-.0619563 1.4668414-.34564744l1.6442681-.9988247c.6765644-.41127326 1.4381608-.58398036 2.1445155-.4854136.7593256.10528122 1.3936402.52701442 1.7394593 1.15637655.3462416.62855188.37769036 1.41672126.0851458 2.16068067-.27122005.6922479-.7928832 1.29967003-1.46962183 1.71029302l-3.8005967 2.30908932"/>
        <path fill="#98B3CD" d="M20.91038346 37.01609473L15.1217986 26.4941468l.95706142-.58191218 5.78935594 10.52243824-.9578325.58142187m1.67025227-1.0587872l-5.7891817-10.52178796.95723566-.58126195 5.7891817 10.52178797-.9572357.5812619"/>
        <path fill="#F2F2F2" d="M42.8802894 6.01504982s4.86207814-4.02080337 7.97266993-1.065465c3.1106979 2.95597418-.0746218 5.34272773-1.74866968 2.44286253 0 0 .2727996 3.70188602-1.3472863 3.3611859-1.6198372-.34113106-1.91423595-2.42894266-1.91423595-2.42894266s.15377854 4.6185185-1.83508545 3.6414626c-1.9888639-.9770559-1.12739256-5.9511034-1.12739256-5.9511034m-6.9869295-1.2334635s-2.1062438-5.3062459-6.5517874-3.7441815c-4.4451888 1.5622691-2.9269041 4.8163298.1990176 2.8020627 0 0-2.3193489 3.2239815-.6753883 3.4848144 1.6436057.260628 3.0772937-1.5080132 3.0772937-1.5080132s-2.7259406 4.0871965-.3952789 3.9068058c2.3310165-.1801858 4.3461432-4.9414883 4.3461432-4.9414883"/>
        <path fill="#98B3CD" d="M43.7206947 10.93367893c-1.3789061 3.45037063-4.88438184 5.4730231-7.8294438 4.51730464-2.94566555-.9554924-4.21556135-4.52750747-2.83640653-7.978309 1.37890607-3.4503707 4.88438183-5.47302315 7.82944375-4.51730474 2.94531076.95528752 4.21520657 4.52730266 2.83640658 7.9783091"/>
        <path fill="#F2F2F2" d="M42.9254174 10.54865522c-1.17980632 2.9522785-4.17866046 4.68253943-6.69858328 3.86483477-2.5201716-.8172738-3.60657825-3.8736988-2.42677195-6.8259774 1.17980625-2.9522785 4.17866044-4.6825395 6.69883208-3.8652657 2.5199228.8177046 3.60632938 3.8741296 2.42652315 6.8264082"/>
        <path fill="#98B3CD" d="M35.09446242 11.73760192l.26753224-.84525324 2.91199866.61718077c.35869354.07609496.74299443.0308065 1.05470645-.12476236.1580931-.0787911.43762455-.2581104.53759334-.5738494.0999688-.315739-.0380762-.5838911-.1296064-.7154491-.1802583-.2597746-.4897417-.4522441-.8480805-.5281341l-1.2602545-.2673956c-.5186608-.1104228-.9552755-.3883571-1.2296174-.783462-.2954776-.4256933-.3737026-.9580731-.214251-1.4612451l.0573132-.1812166c.3165215-1.0013992 1.4801622-1.6246015 2.5930851-1.388835l2.9121048.6178166-.2671774.8454581-2.9121048-.6178166c-.6970144-.1473223-1.4261229.1723187-1.59254852.6990426l-.0573132.1812165c-.0999688.315739.03832504.5834601.12985525.7150181.1806132.25997952.4897417.4522441.84818646.52876992l1.2598997.2671907c.5185548.109787.9555244.3879262 1.22997226.78366696.29537158.42505747.37334788.95786816.2138962 1.46104016-.15884796.502946-.54292144.9379092-1.05338575 1.1918855-.47452815.2368041-1.0211444.3067365-1.53945036.19651864l-2.91235355-.61738565"/>
        <path fill="#98B3CD" d="M36.06496374 13.0436841l2.66255305-8.41566495.7336077.15523486-2.662447 8.4163008-.7337138-.1558706m1.3021468.2478893l2.6621983-8.4158697.7333589.1556657-2.6621982 8.4158698-.733359-.1556657"/>
    </g>
</svg>