<svg xmlns="http://www.w3.org/2000/svg" viewBox="0 0 76 52">
    <g fill="none">
        <g style="fill:#FFF;stroke:#FFF">
            <path d="M26.8 3.9C22 3.9 18.2 7.8 18.2 12.5 18.2 17.3 22 21.2 26.8 21.2 31.6 21.2 35.5 17.3 35.5 12.5 35.5 7.8 31.6 3.9 26.8 3.9M26.8 24.1C20.5 24.1 15.3 18.9 15.3 12.5 15.3 6.2 20.5 1 26.8 1 33.2 1 38.4 6.2 38.4 12.5 38.4 18.9 33.2 24.1 26.8 24.1M4.5 48.1L49.1 48.1C46.5 37.4 37.4 29.8 26.8 29.8 16.3 29.8 7.1 37.4 4.5 48.1L4.5 48.1ZM52.6 51L1 51 1.3 49.3C3.6 36.4 14.3 27 26.8 27 39.3 27 50 36.4 52.3 49.3L52.6 51ZM56.1 16.8C53 16.8 50.5 19.4 50.5 22.5 50.5 25.6 53 28.2 56.1 28.2 59.3 28.2 61.8 25.6 61.8 22.5 61.8 19.4 59.3 16.8 56.1 16.8M56.1 31.1C51.4 31.1 47.6 27.2 47.6 22.5 47.6 17.8 51.4 13.9 56.1 13.9 60.9 13.9 64.7 17.8 64.7 22.5 64.7 27.2 60.9 31.1 56.1 31.1ZM74.5 49.3L74.8 51 52.6 51 52.3 49.3C52.3 48.9 52.2 48.5 52.1 48.1L71.3 48.1C69.3 41.1 63.2 36.1 56.1 36.1 53.2 36.1 50.4 37 48 38.5 47.4 37.7 46.9 36.9 46.3 36.2 49.1 34.3 52.5 33.2 56.1 33.2 65.2 33.2 72.9 40 74.5 49.3Z"/>
        </g>
    </g>
</svg>