<?xml version="1.0" encoding="UTF-8"?>
<svg width="111px" height="75px" viewBox="0 0 111 75" version="1.1" xmlns="http://www.w3.org/2000/svg" xmlns:xlink="http://www.w3.org/1999/xlink">
    <!-- Generator: Sketch 45.2 (43514) - http://www.bohemiancoding.com/sketch -->
    <title>free_tutorial_videos</title>
    <desc>Created with Sketch.</desc>
    <defs></defs>
    <g id="Homepage" stroke="none" stroke-width="1" fill="none" fill-rule="evenodd">
        <g transform="translate(-939.000000, -972.000000)" id="ChampionFX-Academy" fill-rule="nonzero">
            <g transform="translate(0.000000, 811.000000)">
                <g id="Content" transform="translate(380.000000, 161.000000)">
                    <g id="free_tutorial_videos" transform="translate(559.000000, 0.000000)">
                        <path d="M40.1833092,65.2456647 L40.1833092,69.0726156 L70.7991329,69.0726156 L70.7991329,65.2456647 L103.328757,65.2456647 L103.328757,4.01380058 C103.328757,1.89949422 101.616113,0.186849711 99.5018064,0.186849711 L11.4810694,0.186849711 C9.36676301,0.186849711 7.6541185,1.89949422 7.6541185,4.01380058 L7.6541185,65.2456647 L40.1833092,65.2456647 Z" id="Shape" fill="#013365"></path>
                        <path d="M70.7993497,65.2456647 L70.7993497,69.0726156 L40.1833092,69.0726156 L40.1833092,65.2456647 L0,65.2456647 L0,70.9861994 C0,73.1005058 1.71264451,74.8131503 3.82695087,74.8131503 L107.155708,74.8131503 C109.270014,74.8131503 110.982659,73.1005058 110.982659,70.9861994 L110.982659,65.2456647 L70.7993497,65.2456647 Z" id="Shape" fill="#004385"></path>
                        <polygon id="Shape" fill="#FFFFFF" points="11.4810694 61.4187139 99.5015896 61.4187139 99.5015896 4.01380058 11.4810694 4.01380058"></polygon>
                        <g id="Group" transform="translate(61.127168, 30.780347)" fill="#668DB5">
                            <path d="M2.01806358,26.8114162 C0.95982659,26.8114162 0.104479769,25.9541185 0.104479769,24.8978324 L0.104479769,19.1572977 C0.104479769,18.1010116 0.95982659,17.2437139 2.01806358,17.2437139 C3.07630058,17.2437139 3.9316474,18.1010116 3.9316474,19.1572977 L3.9316474,24.8978324 C3.9316474,25.9541185 3.07630058,26.8114162 2.01806358,26.8114162" id="Shape"></path>
                            <path d="M9.67218208,26.8114162 C8.61394509,26.8114162 7.75859827,25.9541185 7.75859827,24.8978324 L7.75859827,11.503396 C7.75859827,10.4471098 8.61394509,9.58981214 9.67218208,9.58981214 C10.7304191,9.58981214 11.5857659,10.4471098 11.5857659,11.503396 L11.5857659,24.8978324 C11.5855491,25.9541185 10.7302023,26.8114162 9.67218208,26.8114162" id="Shape"></path>
                            <path d="M17.3260838,26.8114162 C16.2678468,26.8114162 15.4125,25.9541185 15.4125,24.8978324 L15.4125,15.3303468 C15.4125,14.2740607 16.2678468,13.416763 17.3260838,13.416763 C18.3843208,13.416763 19.2396676,14.2740607 19.2396676,15.3303468 L19.2396676,24.8978324 C19.2396676,25.9541185 18.3843208,26.8114162 17.3260838,26.8114162" id="Shape"></path>
                            <path d="M24.9799855,26.8114162 C23.9217486,26.8114162 23.0664017,25.9541185 23.0664017,24.8978324 L23.0664017,1.9359104 C23.0664017,0.879624277 23.9217486,0.0223265896 24.9799855,0.0223265896 C26.0382225,0.0223265896 26.8935694,0.879624277 26.8935694,1.9359104 L26.8935694,24.8978324 C26.8935694,25.9541185 26.0382225,26.8114162 24.9799855,26.8114162" id="Shape"></path>
                            <path d="M32.634104,26.8114162 C31.5758671,26.8114162 30.7205202,25.9541185 30.7205202,24.8978324 L30.7205202,9.58981214 C30.7205202,8.53352601 31.5758671,7.67622832 32.634104,7.67622832 C33.692341,7.67622832 34.5476879,8.53352601 34.5476879,9.58981214 L34.5476879,24.8978324 C34.5474711,25.9541185 33.6921243,26.8114162 32.634104,26.8114162" id="Shape"></path>
                        </g>
                        <path d="M55.4913295,29.8460983 C55.4913295,40.9424133 46.4960983,49.9378613 35.3995665,49.9378613 C24.3030347,49.9378613 15.3078035,40.9426301 15.3078035,29.8460983 C15.3078035,18.7495665 24.3032514,9.75433526 35.3995665,9.75433526 C46.4958815,9.75433526 55.4913295,18.7495665 55.4913295,29.8460983" id="Shape" fill="#4699C7"></path>
                        <path d="M34.4690029,9.77536127 C34.4594653,9.78489884 34.4536127,9.79248555 34.4421243,9.80223988 L34.4421243,30.7320087 C34.4421243,30.7721098 34.4746387,30.8028902 34.5130058,30.8028902 L55.4427746,30.8028902 C55.4523121,30.7933526 55.4598988,30.7875 55.4696532,30.7760116 C56.0035405,18.9448699 46.3001445,9.24147399 34.4690029,9.77536127" id="Shape" fill="#92E8E9"></path>
                        <g id="Group" transform="translate(66.763006, 7.803468)" fill="#8D6FC8">
                            <path d="M17.4307803,13.4319364 L2.12276012,13.4319364 C1.06452312,13.4319364 0.209176301,12.5746387 0.209176301,11.5183526 C0.209176301,10.4620665 1.06452312,9.60476879 2.12276012,9.60476879 L17.4307803,9.60476879 C18.4890173,9.60476879 19.3443642,10.4620665 19.3443642,11.5183526 C19.3441474,12.5746387 18.4888006,13.4319364 17.4307803,13.4319364" id="Shape"></path>
                            <path d="M26.9982659,13.4319364 C26.5007948,13.4319364 26.0013728,13.2214595 25.6395954,12.8770231 C25.563078,12.7814306 25.4674855,12.6856214 25.4100434,12.5900289 C25.333526,12.4751445 25.2760838,12.3604769 25.2379335,12.2455925 C25.1804913,12.1307081 25.142341,12.0160405 25.1230491,11.9011561 C25.103974,11.7671965 25.0846821,11.633237 25.0846821,11.5183526 C25.0846821,11.2695087 25.1421243,11.0208815 25.2377168,10.7913295 C25.3333092,10.5617775 25.4672688,10.3513006 25.6395954,10.1598988 C26.3475434,9.45195087 27.6296965,9.45195087 28.3567197,10.1598988 C28.5288295,10.3513006 28.662789,10.5427023 28.7585983,10.7913295 C28.8541908,11.0208815 28.9116329,11.2697254 28.9116329,11.5183526 C28.9116329,12.0348988 28.7011561,12.5132948 28.3567197,12.8770231 C27.9932081,13.2212428 27.495737,13.4319364 26.9982659,13.4319364" id="Shape"></path>
                            <path d="M26.9982659,3.86445087 L21.2577312,3.86445087 C20.1994942,3.86445087 19.3441474,3.00715318 19.3441474,1.95086705 C19.3441474,0.894580925 20.1994942,0.037283237 21.2577312,0.037283237 L26.9982659,0.037283237 C28.0565029,0.037283237 28.9118497,0.894580925 28.9118497,1.95086705 C28.9116329,3.00715318 28.0562861,3.86445087 26.9982659,3.86445087" id="Shape"></path>
                            <path d="M5.94971098,3.86445087 L2.12276012,3.86445087 C1.06452312,3.86445087 0.209176301,3.00715318 0.209176301,1.95086705 C0.209176301,0.894580925 1.06452312,0.037283237 2.12276012,0.037283237 L5.94971098,0.037283237 C7.00794798,0.037283237 7.8632948,0.894580925 7.8632948,1.95086705 C7.8632948,3.00715318 7.00794798,3.86445087 5.94971098,3.86445087" id="Shape"></path>
                            <path d="M13.6038295,3.86445087 C13.3549855,3.86445087 13.1063584,3.80700867 12.8768064,3.71141618 C12.6279624,3.6158237 12.4367775,3.48186416 12.2453757,3.30953757 C12.0732659,3.11813584 11.9393064,2.90765896 11.8434971,2.67810694 C11.7286127,2.44855491 11.6904624,2.19971098 11.6904624,1.95108382 C11.6904624,1.70223988 11.7288295,1.45361272 11.8434971,1.22406069 C11.9390896,0.975216763 12.0730491,0.784031792 12.2453757,0.592630058 C12.4367775,0.420520231 12.6281792,0.286560694 12.8768064,0.190751445 C13.5847543,-0.0962427746 14.4266618,0.0567919075 14.9625,0.592630058 C15.1346098,0.784031792 15.2685694,0.975433526 15.3643786,1.22406069 C15.4599711,1.45361272 15.5174133,1.70245665 15.5174133,1.95108382 C15.5174133,2.19992775 15.4599711,2.44855491 15.3643786,2.67810694 C15.2687861,2.90765896 15.1348266,3.11813584 14.9625,3.30953757 C14.5987717,3.65397399 14.1013006,3.86445087 13.6038295,3.86445087" id="Shape"></path>
                        </g>
                    </g>
                </g>
            </g>
        </g>
    </g>
</svg>