<?xml version="1.0" encoding="UTF-8"?>
<svg width="59px" height="75px" viewBox="0 0 59 75" version="1.1" xmlns="http://www.w3.org/2000/svg" xmlns:xlink="http://www.w3.org/1999/xlink">
    <!-- Generator: Sketch 45.2 (43514) - http://www.bohemiancoding.com/sketch -->
    <title>free_trading_books</title>
    <desc>Created with Sketch.</desc>
    <defs></defs>
    <g id="Homepage" stroke="none" stroke-width="1" fill="none" fill-rule="evenodd">
        <g transform="translate(-415.000000, -972.000000)" id="ChampionFX-Academy" fill-rule="nonzero">
            <g transform="translate(0.000000, 811.000000)">
                <g id="Content" transform="translate(380.000000, 161.000000)">
                    <g id="free_trading_books" transform="translate(35.000000, 0.000000)">
                        <path d="M55.078125,1.171875 L3.515625,1.171875 C1.57705078,1.171875 0,2.74892578 0,4.6875 L0,71.484375 C0,73.4229492 1.57705078,75 3.515625,75 L55.078125,75 C57.0166992,75 58.59375,73.4229492 58.59375,71.484375 L58.59375,4.6875 C58.59375,2.74892578 57.0166992,1.171875 55.078125,1.171875 Z" id="Shape" fill="#92E8E9"></path>
                        <path d="M5.82729492,1.171875 L3.515625,1.171875 C1.57705078,1.171875 0,2.74892578 0,4.6875 L0,71.484375 C0,73.4229492 1.57705078,75 3.515625,75 L5.82729492,75 L5.82729492,1.171875 Z" id="Shape" fill="#013365"></path>
                        <path d="M50.390625,0 L38.671875,0 C38.024707,0 37.5,0.524707031 37.5,1.171875 L37.5,18.7494141 C37.5,19.1717285 37.7266113,19.561377 38.0939941,19.7690918 C38.461377,19.9773926 38.9122559,19.9728516 39.2750977,19.7541504 L44.53125,16.6003418 L49.7875488,19.7542969 C49.972998,19.865918 50.1823242,19.9214355 50.390625,19.9214355 C50.5896973,19.9214355 50.788916,19.8710449 50.9685059,19.7692383 C51.3358887,19.5615234 51.5625,19.171875 51.5625,18.7495605 L51.5625,1.171875 C51.5625,0.524707031 51.037793,0 50.390625,0 Z" id="Shape" fill="#8D6FC8"></path>
                        <path d="M5.859375,70.3125 C5.21162109,70.3125 4.6875,69.787793 4.6875,69.140625 L4.6875,7.03125 C4.6875,6.38408203 5.21162109,5.859375 5.859375,5.859375 C6.50712891,5.859375 7.03125,6.38408203 7.03125,7.03125 L7.03125,69.140625 C7.03125,69.787793 6.50712891,70.3125 5.859375,70.3125 Z" id="Shape" fill="#8D6FC8"></path>
                        <path d="M43.9132324,50.390625 L43.8294434,50.390625 C43.819043,50.3507812 43.8171387,50.310791 43.804541,50.2710938 L37.171875,29.2677246 C38.0037598,29.1288574 38.6397949,28.410791 38.6397949,27.5390625 C38.6397949,26.5680176 37.8524414,25.78125 36.8819824,25.78125 L27.5069824,25.78125 C26.5365234,25.78125 25.7491699,26.5680176 25.7491699,27.5390625 C25.7491699,28.410791 26.3853516,29.1288574 27.2170898,29.2677246 L20.5844238,50.2710937 C20.5718262,50.310791 20.5697754,50.3507812 20.5595215,50.390625 L20.4757324,50.390625 C19.5052734,50.390625 18.7179199,51.1773926 18.7179199,52.1484375 C18.7179199,53.1194824 19.5052734,53.90625 20.4757324,53.90625 L25.1632324,53.90625 C26.1336914,53.90625 26.9210449,53.1194824 26.9210449,52.1484375 C26.9210449,51.276709 26.2850098,50.5586426 25.453125,50.4197754 L26.7575684,46.2890625 L37.63125,46.2890625 L38.9356934,50.4197754 C38.1039551,50.5586426 37.4677734,51.276709 37.4677734,52.1484375 C37.4677734,53.1194824 38.255127,53.90625 39.2255859,53.90625 L43.9130859,53.90625 C44.8835449,53.90625 45.6708984,53.1194824 45.6708984,52.1484375 C45.6708984,51.1773926 44.8836914,50.390625 43.9132324,50.390625 Z M28.237793,41.6015625 L32.085791,29.4164063 C32.0983887,29.376709 32.1004395,29.3367187 32.1106934,29.296875 L32.2782715,29.296875 C32.2886719,29.3367187 32.2905762,29.376709 32.3031738,29.4164063 L36.1511719,41.6015625 L28.237793,41.6015625 Z" id="Shape" fill="#4699C7"></path>
                    </g>
                </g>
            </g>
        </g>
    </g>
</svg>